<?xml version="1.0" encoding="UTF-8"?>
<svg id="Livello_2" data-name="Livello 2" xmlns="http://www.w3.org/2000/svg" viewBox="0 0 331.07 283.45">
  <defs>
    <style>
      .cls-1 {
        fill: #e52821;
      }
    </style>
  </defs>
  <g id="Logo_C_SB" data-name="Logo C_SB">
    <g id="Pittogramma">
      <path class="cls-1" d="m50.71,93.43L3.23,57.58C1.17,56.03,0,53.83,0,51.52V8.05C0,3.08,5.27-.65,11.19.09l313.88,44.54c3.43.43,6,3.33,6,6.77v21.24c0,4.03-3.48,7.25-7.52,6.94l-236.15-18.1c-5.18-.4-11.75,2.71-7.58,8.41.6.83,1.37,1.52,2.19,2.14l5.35,4.02c10.65,8.02,6.03,19.97-.06,19.97h-30.57c-2.19-.04-4.41-1.38-6.03-2.6Z"/>
      <path class="cls-1" d="m314.41,181.63l14.96,18.99c1.1,1.44,1.7,3.21,1.7,5.02v21.9c0,4.09-2.99,7.56-7.03,8.17L9.59,283.35c-5,.76-9.51-3.11-9.51-8.17v-44.05c0-4.36,3.39-7.98,7.75-8.25l264.61-16.71c7.21-.46,10.41-9.29,5.16-14.26h0c-5.52-5.22-1.67-14.5,5.93-14.27h24.66c2.49.07,4.7,2.01,6.22,3.99Z"/>
      <path class="cls-1" d="m281.06,154.87h-143.78c-3.17,0-6.25-1.03-8.79-2.93l-39.36-29.59c-3.37-2.53-1.58-7.89,2.63-7.89h164.08c3.28,0,6.37,1.5,8.4,4.08l21.39,26.91c3,3.82.28,9.42-4.58,9.42Z"/>
    </g>
  </g>
</svg>