<svg width="404" height="404" viewBox="0 0 404 404" fill="none" xmlns="http://www.w3.org/2000/svg">
<path d="M202 1L202.039 201.802L278.92 16.3002L202.112 201.833L344.128 59.8716L202.167 201.888L387.7 125.08L202.198 201.961L403 202L202.198 202.039L387.7 278.92L202.167 202.112L344.128 344.128L202.112 202.167L278.92 387.7L202.039 202.198L202 403L201.961 202.198L125.08 387.7L201.888 202.167L59.8716 344.128L201.833 202.112L16.3002 278.92L201.802 202.039L1 202L201.802 201.961L16.3002 125.08L201.833 201.888L59.8716 59.8716L201.888 201.833L125.08 16.3002L201.961 201.802L202 1Z" fill="#E42721" stroke="#E42721" stroke-width="16"/>
</svg>
