<svg width="174" height="102" viewBox="0 0 174 102" fill="none" xmlns="http://www.w3.org/2000/svg">
<path fill-rule="evenodd" clip-rule="evenodd" d="M124.572 94.73C138.034 93.1584 151.654 90.5715 165.133 93.3617C165.936 93.5251 166.721 93.0108 166.889 92.2045C167.052 91.3991 166.538 90.6109 165.734 90.4416C151.94 87.5875 138.001 90.1594 124.225 91.7692C123.41 91.8603 122.826 92.6051 122.923 93.422C123.015 94.2398 123.757 94.8211 124.572 94.73Z" fill="#FAFAFA"/>
<path fill-rule="evenodd" clip-rule="evenodd" d="M120.605 75.3554C124.241 70.9035 128.397 67.366 133.712 65.1528C134.471 64.8372 134.828 63.965 134.516 63.2048C134.199 62.4455 133.326 62.0855 132.573 62.4002C126.793 64.8062 122.263 68.6259 118.31 73.464C117.787 74.1 117.878 75.0401 118.516 75.5616C119.148 76.0833 120.088 75.9906 120.605 75.3554Z" fill="#FAFAFA"/>
<path fill-rule="evenodd" clip-rule="evenodd" d="M103.012 34.8482C103.998 27.982 107.045 22.2891 112.306 17.7454C112.927 17.2093 112.997 16.2674 112.459 15.6446C111.927 15.0209 110.987 14.9503 110.367 15.4864C104.545 20.517 101.164 26.8181 100.072 34.4204C99.9532 35.2342 100.522 35.9905 101.331 36.1086C102.145 36.2264 102.899 35.6612 103.012 34.8482Z" fill="#FAFAFA"/>
<path fill-rule="evenodd" clip-rule="evenodd" d="M35.6628 35.2377C34.7121 36.7463 33.8938 38.3428 33.2417 40.0114C32.9507 40.7544 32.4751 42.3133 32.5465 43.5824C32.6177 44.9351 33.2298 45.9984 34.4784 46.4275C36.1366 46.9962 37.3603 46.7395 38.2459 46.1286C39.0989 45.5415 39.6894 44.5413 39.972 43.2722C40.5111 40.8465 39.8842 37.3445 39.1473 35.3996C40.1868 33.9669 41.3604 32.635 42.6461 31.4167C52.2229 22.3431 68.2342 22.927 81.8507 32.5457C86.6163 35.9137 89.8158 43.9491 92.1375 52.7786C95.7543 66.526 97.0257 82.2717 97.5427 86.8643C97.673 87.9981 97.8736 88.6535 97.9513 88.7792C98.3209 89.3988 98.8333 89.5009 99.1836 89.5176C99.6902 89.5363 100.071 89.3862 100.365 89.1761C100.763 88.8887 101.059 88.4399 101.137 87.8011C101.177 87.4487 101.134 86.972 101.051 86.4691C100.989 86.1208 100.865 85.7483 100.9 85.4875C101.132 83.8163 101.463 82.1695 101.781 80.5131C102.836 74.947 104.468 69.64 106.359 64.3024C112.368 47.3425 117.979 29.5267 129.789 15.5831C130.319 14.9575 130.246 14.0155 129.619 13.4829C128.997 12.9495 128.06 13.0254 127.525 13.6524C115.477 27.8721 109.689 46.0061 103.56 63.3021C101.952 67.8424 100.527 72.3628 99.4705 77.0298C98.5338 69.1706 96.9363 58.3342 94.1508 48.9401C91.6741 40.5852 88.1907 33.3845 83.5582 30.1102C68.6421 19.573 51.0923 19.3102 40.606 29.2497C39.4845 30.3135 38.4343 31.4576 37.4781 32.6726C29.8166 22.4838 16.1325 19.9 5.33895 26.8166C4.64561 27.2595 4.44588 28.181 4.88583 28.8743C5.33166 29.5667 6.24838 29.7707 6.94173 29.3278C16.6681 23.0954 29.0623 25.679 35.6628 35.2377ZM37.0386 38.8169C36.6575 39.5594 36.3153 40.3217 36.0058 41.1034C35.8431 41.5225 35.5721 42.3223 35.5165 43.0754C35.5054 43.2515 35.5374 43.5202 35.555 43.6442C35.9892 43.7875 36.3204 43.8394 36.5608 43.6724C36.8617 43.4661 36.973 43.0651 37.0722 42.6207C37.3225 41.5054 37.2536 40.0837 37.0386 38.8169Z" fill="#FAFAFA"/>
</svg>
