<svg width="344" height="195" viewBox="0 0 344 195" fill="none" xmlns="http://www.w3.org/2000/svg">
<path d="M-28.2498 167.445C-28.3349 167.138 -28.5912 166.736 -28.4803 166.54C-24.2315 159.037 -20.1788 151.423 -15.6337 144.097C-10.4265 135.681 -5.00668 127.351 0.697294 119.244C7.98313 108.948 15.6197 98.8826 23.1854 88.7884C24.6935 86.7662 26.5567 84.9953 28.4578 83.3032C29.9745 81.9503 31.7826 81.2731 33.8198 82.54C34.2915 82.8321 34.9779 82.9065 35.5262 82.8363C38.4631 82.4884 40.7687 84.111 43.002 85.4889C46.4164 87.5532 47.629 91.1121 47.3506 94.8929C46.907 100.699 46.1848 106.52 45.2544 112.276C43.3306 124.32 41.1155 136.316 39.1459 148.348C37.8755 156.122 37.2959 163.991 37.369 171.877C37.3791 172.763 37.4764 173.652 37.5287 174.636C37.9639 174.438 38.213 174.387 38.2209 174.32C38.3318 172.241 40.1663 171.168 41.066 169.554C47.0771 158.85 52.9628 148.065 59.3453 137.587C68.6517 122.306 79.1649 107.835 90.4677 93.9372C99.9438 82.3004 109.976 71.1546 120.841 60.789C123.716 58.051 126.893 55.6187 130.019 53.1535C132.232 51.3969 134.713 50.7319 137.645 51.4025C139.964 51.94 142.357 52.3107 144.369 53.5612C146.135 54.6678 148.08 55.9104 149.102 57.6039C150.123 59.2974 150.388 61.6238 150.468 63.6852C150.823 72.6169 149.26 81.3825 147.963 90.1796C145.909 104.004 143.682 117.821 142.914 131.79C142.55 138.294 142.709 144.82 142.653 151.348C142.646 152.15 142.855 152.951 143.467 153.82C144.465 151.839 145.603 149.915 146.459 147.876C153.658 130.779 160.827 113.645 167.976 96.5153C174.446 81.0198 181.325 65.7211 189.112 50.8403C193.394 42.6595 197.625 34.4456 202.642 26.6756C203.102 25.9741 203.609 25.2849 204.145 24.6328C205.96 22.4173 206.683 22.3543 208.853 24.2647C209.4 23.9784 209.959 23.6463 210.572 23.3678C210.95 23.2032 211.459 22.9462 211.747 23.0815C214.086 24.1344 216.833 24.5402 218.481 26.7534C218.993 27.4484 219.328 28.4398 219.355 29.3002C219.398 31.4991 219.247 33.6951 219.095 35.8911C218.14 48.6437 217.011 61.3891 216.21 74.1531C215.639 83.2114 215.637 92.3034 217.189 101.269C217.751 104.508 218.612 107.728 219.626 110.852C220.365 113.166 221.497 113.408 223.035 111.532C226.475 107.335 229.889 103.122 232.973 98.6736C239.694 88.9924 246.084 79.0764 252.834 69.4324C259.167 60.394 266.149 51.871 273.628 43.7645C275.927 41.2756 278.377 38.8855 281.082 36.897C287.714 32.018 294.931 32.0616 302.125 35.4436C305.487 37.0426 307.883 39.8369 308.939 43.5798C309.041 43.9699 309.144 44.4681 309.429 44.6907C311.388 46.1037 311.626 48.1973 311.786 50.3289C311.566 50.4177 311.267 50.4363 311.131 50.616C310.958 50.825 310.914 51.1371 310.862 51.4077C310.87 51.4492 311.192 51.6424 311.245 51.588C311.473 51.4327 311.734 51.2273 311.836 50.9896C311.905 50.8021 311.783 50.5244 311.736 50.296C314.195 51.3024 315.023 53.837 316.643 55.6014C317.451 56.4732 318.082 57.5333 318.989 58.2548C319.716 58.8403 320.724 59.108 321.649 59.3928C322.599 59.6941 323.602 59.833 324.755 60.0706C324.811 60.4485 324.886 61.0176 324.939 61.5909C325.047 62.8457 324.337 63.4906 323.211 63.7018C321.987 63.9552 320.721 64.2172 319.482 64.1922C318.242 64.1672 316.948 63.9804 315.798 63.5473C314.581 63.1064 313.918 62.0965 314.469 60.6835L314.437 60.7336L314.321 60.1732L314.375 60.2269C314.082 59.335 313.357 59.0737 312.521 59.0086L312.571 59.0415C312.491 58.8633 312.427 58.66 312.347 58.4818C312.405 58.4482 312.463 58.4145 312.521 58.3809L312.397 58.5147C311.899 58.6178 311.422 58.7166 310.923 58.8197L310.944 58.8154C310.292 58.2793 308.943 58.5584 309.025 57.1777L309.034 57.2192C307.787 56.0053 306.374 54.9337 305.339 53.5895C303.082 50.6362 301.017 47.5569 298.856 44.5406C298.159 43.5807 297.372 42.7046 296.617 41.7784C295.716 40.6661 294.564 40.5366 293.446 41.2008C292.179 41.9825 290.992 42.9424 289.847 43.8937C288.114 45.3561 286.437 46.8722 284.734 48.3718C284.728 48.1349 284.722 47.8979 284.717 47.661L284.767 47.694C284.747 47.9144 284.749 48.1306 284.73 48.351C284.037 49.2952 283.793 50.731 282.388 50.6323C280.076 55.0502 276.641 58.5319 273.765 62.4173L273.798 62.3671C272.241 64.5725 270.663 66.7822 269.136 69.0248C262.56 78.5679 256.068 88.2018 249.392 97.679C245.442 103.28 241.213 108.679 236.983 114.079C233.813 118.112 229.888 121.11 224.702 122.097C224.287 122.182 223.88 122.31 223.512 122.516C219.485 124.713 215.629 123.757 211.863 121.874C209.619 120.758 208.296 118.759 207.284 116.587C205.373 112.48 204.363 108.122 203.743 103.661C201.868 90.5199 202.296 77.3136 202.857 64.123C202.969 61.5239 202.947 58.9092 202.967 56.2858L202.913 56.3402C202.875 56.1533 202.832 55.9458 202.793 55.7589L202.835 55.7504C203.016 54.9551 203.173 54.1434 203.412 53.0984C202.108 53.3897 201.903 54.3847 201.533 55.1105C197.803 62.5061 194.053 69.906 190.419 77.3467C183.541 91.4981 177.643 106.096 171.625 120.632C169.174 126.573 166.652 132.485 164.176 138.408C163.702 139.567 163.348 140.788 162.924 141.98L162.978 141.925C162.6 142.718 162.244 143.506 161.867 144.298L161.895 144.227C161.65 144.819 161.425 145.407 161.18 145.999L161.175 145.978C160.946 146.545 160.717 147.112 160.472 147.704L160.505 147.654C160.356 147.879 160.225 148.08 160.077 148.305L160.109 148.255C160.148 148.442 160.187 148.629 160.23 148.836L160.184 148.824C159.943 149.545 159.774 150.294 159.417 150.974C157.261 154.992 155.101 158.989 152.899 162.995C152.41 163.875 151.779 164.698 151.266 165.562C150.077 167.561 148.448 168.894 146.064 169.193C144.776 169.351 143.695 169.878 142.648 170.679C141.304 171.715 139.827 171.587 138.104 171.208C134.011 170.258 132.649 167.336 131.831 163.804C130.603 158.495 130.346 153.071 130.157 147.656C129.77 136.371 130.78 125.144 132.036 113.953C133.375 102.008 134.933 90.0832 136.297 78.1552C136.697 74.544 136.764 70.8935 136.985 67.2544C137.004 66.9259 137.039 66.5723 136.97 66.2401C136.665 64.7663 135.461 64.3877 134.404 65.4507C131.1 68.7319 127.712 71.9223 124.596 75.381C117.981 82.7459 111.441 90.1602 105.085 97.7313C100.952 102.656 97.2036 107.869 93.2797 112.967C85.4112 123.167 78.6787 134.15 71.6914 144.947C67.9343 150.746 64.3569 156.682 60.7544 162.601C59.7552 164.258 59.0022 166.059 58.0574 167.769C57.2358 169.238 56.3389 170.658 55.4671 172.094L55.5043 172.064C55.14 172.919 54.7463 173.736 54.4278 174.603C54.0971 175.516 53.8416 176.478 53.536 177.407C53.3163 178.123 53.1717 178.889 52.7809 179.511C50.8397 182.684 48.7983 185.79 46.8321 188.946C44.9647 191.952 42.2061 193.475 38.8139 194.134C37.776 194.349 36.7654 194.904 35.8084 195.405C33.9566 196.394 32.1628 196.722 30.3003 195.463C29.9496 195.232 29.5616 195.031 29.1536 194.942C26.4809 194.37 25.1416 192.395 24.5438 190.03C23.7671 187.008 23.0857 183.924 22.7699 180.829C21.802 171.548 22.3014 162.245 23.0879 152.969C24.3038 138.864 27.0428 125.006 29.7568 111.132C29.9379 110.228 30.1977 109.287 30.1834 108.381C30.1755 107.82 29.7145 107.266 29.4654 106.689L29.5155 106.722C29.8147 106.076 30.0931 105.434 30.3923 104.788C30.2671 104.705 30.1418 104.623 30.0165 104.541C29.5169 105.055 28.9421 105.521 28.5177 106.085C17.8183 120.702 7.34875 135.488 -1.93904 151.069C-7.25505 160.005 -12.2998 169.102 -17.4654 178.136C-19.6929 182.017 -21.8953 185.915 -24.0727 189.829C-24.3561 190.342 -24.3726 190.995 -24.6811 191.492C-25.4548 192.669 -26.308 193.777 -27.1319 194.921C-26.9923 194.026 -27.0947 193.009 -26.7132 192.237C-25.039 188.925 -23.2689 185.658 -21.4781 182.387C-18.8369 177.576 -16.2 172.744 -13.4837 167.983C-9.20986 160.496 -4.99043 152.956 -0.495415 145.597C3.33324 139.306 7.53339 133.242 11.5582 127.063C13.0892 124.733 14.5658 122.349 16.051 120.007C17.6658 117.768 19.2598 115.533 20.8746 113.294C21.0063 113.094 21.138 112.893 21.2697 112.693C21.4014 112.493 21.5331 112.292 21.6648 112.092C21.7965 111.891 21.9282 111.691 22.0392 111.495C22.1709 111.294 22.2983 111.073 22.43 110.873C22.5617 110.672 22.7184 110.488 22.8501 110.288C22.9775 110.067 23.1049 109.846 23.2116 109.629L23.2574 109.641C23.13 109.862 23.0026 110.083 22.8752 110.304C22.7435 110.505 22.591 110.71 22.455 110.889C22.3233 111.09 22.1959 111.311 22.0642 111.511C21.9325 111.712 21.8008 111.912 21.6691 112.112L21.274 112.714L20.8789 113.315C18.7752 115.179 17.0101 117.319 16.0553 120.028C15.4856 120.622 14.8199 121.171 14.3339 121.856C12.1637 124.968 9.97269 128.083 7.90699 131.282C3.10918 138.747 -1.66356 146.228 -6.36116 153.759C-9.88631 159.424 -13.2361 165.204 -16.6861 170.918C-17.9444 172.997 -19.6487 174.908 -20.4861 177.138C-21.6299 180.189 -23.158 182.951 -24.9904 185.603L-24.9575 185.553C-25.7298 186.946 -26.4856 188.315 -27.2579 189.709L-27.225 189.659C-27.7289 190.78 -28.1491 191.993 -29.5728 192.331C-29.6558 192.348 -29.5935 192.963 -29.587 193.308L-29.6372 193.275C-29.6959 193.828 -29.7545 194.381 -29.8132 194.935C-29.897 194.844 -29.985 194.732 -30.0688 194.641C-29.985 194.732 -29.8805 194.819 -29.7968 194.91C-30.282 195.703 -31.1675 196.341 -30.7809 197.581C-29.7373 197.603 -29.3264 196.869 -28.7982 196.283C-28.3236 195.752 -27.7403 195.328 -27.207 194.872C-27.7152 196.6 -28.2069 198.304 -28.8453 200.449C-28.1883 199.859 -27.8082 199.499 -27.4238 199.159L-27.4739 199.126C-28.6063 201.395 -29.6219 203.705 -30.8545 205.909C-34.9179 213.157 -39.332 220.174 -44.4226 226.748C-46.6608 229.635 -49.3128 231.569 -53.0349 231.993C-54.09 232.125 -55.0963 232.701 -56.0827 233.165C-58.3539 234.219 -60.4912 234.142 -62.9321 233.435C-68.5053 231.817 -70.7658 227.588 -72.2455 222.634C-74.0952 216.414 -74.786 210.042 -75.0202 203.575C-75.566 187.756 -73.4497 172.143 -71.3127 156.527C-69.3424 142.092 -67.5303 127.625 -65.6931 113.175C-65.5507 112.085 -64.9438 110.834 -66.0769 109.856L-66.0268 109.889C-65.7498 109.031 -65.4728 108.172 -65.1063 107.014C-66.4298 107.418 -66.7061 108.384 -67.142 109.102C-74.5287 121.108 -81.1144 133.532 -87.0452 146.296C-94.3574 162.01 -100.478 178.147 -104.402 195.064C-106.69 204.932 -107.983 214.898 -108.011 225.012C-108.021 226.118 -107.968 227.211 -107.94 228.288C-109.295 228.713 -110.288 228.586 -110.919 227.909C-111.3 228.68 -111.67 229.406 -112.002 230.103C-112.852 229.759 -113.722 229.636 -114.278 229.145C-114.859 228.637 -115.284 227.838 -115.501 227.103C-117.755 219.452 -118.356 211.632 -117.486 203.703C-115.756 188.106 -111.907 173.023 -106.267 158.435C-97.6227 136.082 -87.0516 114.672 -73.7855 94.6749C-71.7728 91.6391 -69.4007 88.8754 -67.1081 86.0416C-66.4152 85.2055 -65.5133 84.5427 -64.6615 83.8469C-63.7353 83.0924 -62.8062 82.7703 -61.6903 83.6651C-61.2265 84.0237 -60.3897 84.1969 -59.7877 84.0723C-56.4665 83.3851 -53.9776 85.0564 -51.5045 86.8608C-50.0801 87.8865 -49.3521 89.2078 -49.3821 90.9458C-49.468 94.9249 -49.2667 98.9312 -49.7269 102.879C-51.607 119.633 -53.6867 136.364 -55.6791 153.097C-57.3087 166.877 -59.1752 180.663 -59.3697 194.578C-59.4654 201.438 -59.4488 208.319 -57.9033 215.056C-57.7401 215.844 -57.4065 216.619 -57.1259 217.557C-55.5684 216.715 -54.8404 215.526 -54.1669 214.282C-51.0955 208.517 -48.0199 202.772 -44.9944 196.994C-44.1569 195.392 -43.3567 193.819 -41.2695 193.236C-42.0547 191.428 -41.3748 189.902 -40.5323 188.429C-39.0199 185.8 -37.3615 183.249 -35.8992 180.587C-34.6136 178.221 -33.5951 175.716 -32.3554 173.338C-31.9575 172.541 -31.2424 171.917 -30.6734 171.215L-30.7149 171.223C-30.6304 169.539 -29.9905 168.238 -28.3027 167.607L-28.2319 167.636L-28.3442 167.616L-28.2498 167.445ZM-46.0049 206.965C-45.8524 206.761 -45.7043 206.535 -45.5726 206.335C-43.4725 203.303 -41.2722 200.336 -39.3182 197.226C-38.2653 195.515 -36.8215 194.437 -34.9627 193.273C-34.9276 194.175 -34.8817 194.815 -34.8474 195.608C-32.4767 195.14 -31.7516 193.518 -31.4739 191.512L-31.5068 191.562C-30.7667 190.954 -30.0059 190.342 -29.0424 189.558C-30.4175 189.085 -31.6136 188.64 -32.8218 188.241C-33.655 187.98 -33.8619 187.504 -33.5011 186.736L-33.5341 186.786C-33.1568 185.994 -32.7754 185.222 -32.3982 184.43L-32.4311 184.48C-31.5249 182.582 -30.6939 180.635 -29.6918 178.783C-26.5174 172.888 -23.4389 166.947 -20.0183 161.196C-14.5506 151.947 -8.96613 142.739 -3.20635 133.646C0.595092 127.643 4.66355 121.779 8.81575 116.006C14.8261 107.705 21.0368 99.5368 27.1474 91.3022C27.6749 90.6086 28.0772 89.8326 28.5295 89.0896C27.8882 88.9193 27.5353 88.9923 27.3578 89.1806C25.8468 90.7704 24.2356 92.2943 22.9085 94.0408C19.0877 99.0092 15.3464 104.048 11.6759 109.115C7.2968 115.151 2.91343 121.167 -1.2903 127.318C-5.37448 133.315 -9.2747 139.469 -13.1585 145.598C-15.6064 149.46 -18.0586 153.301 -20.2102 157.339C-22.6781 161.941 -25.7889 166.156 -28.0564 170.89C-29.1022 173.054 -30.7026 174.944 -31.84 177.084C-33.9994 181.19 -36.0379 185.356 -38.1015 189.506C-39.4471 192.209 -40.8178 194.896 -42.0425 197.66C-43.2915 200.516 -44.3737 203.446 -45.5267 206.347C-45.6792 206.552 -45.8066 206.773 -45.9591 206.978L-46.0092 206.945L-46.0049 206.965ZM212.873 39.1918C212.873 39.1918 212.843 39.1546 212.822 39.1589L212.873 39.1918ZM-51.6475 99.1424L-51.6768 99.1052L-51.6682 99.1467L-51.6475 99.1424ZM40.5494 178.146C40.7019 177.941 40.8543 177.736 41.0025 177.511C41.1342 177.311 41.2451 177.114 41.3725 176.893C41.9817 175.966 42.6452 175.093 43.1834 174.137C47.6341 166.355 52.0346 158.539 56.506 150.752C64.9842 135.966 74.6858 121.966 84.9178 108.333C90.3941 101.009 96.096 93.8333 102.04 86.8885C108.212 79.6804 114.789 72.8645 121.178 65.8711C121.814 65.1768 122.399 64.4495 123.014 63.7595C123.559 63.1489 124.129 62.5548 124.678 61.965C124.544 61.8411 124.414 61.7381 124.26 61.6186C122.681 62.9843 121.043 64.2756 119.568 65.728C118.106 67.1345 116.807 68.7021 115.424 70.1789C110.029 76.0141 104.455 81.7134 99.2775 87.7633C94.1497 93.7381 89.3605 99.9892 84.5756 106.261C80.4169 111.689 76.2211 117.146 72.4926 122.875C65.7601 133.23 59.3533 143.798 52.8004 154.289C52.4425 154.861 51.9594 155.351 51.5514 155.89C51.1806 156.399 50.7934 156.934 50.4978 157.493C48.9718 160.58 47.5002 163.72 45.9534 166.811C44.8991 168.934 43.7238 170.995 42.7196 173.151C42.1498 174.373 41.8385 175.693 41.4105 176.972C41.2788 177.172 41.1678 177.369 41.0404 177.59C40.888 177.794 40.7355 177.999 40.5874 178.225L40.5372 178.192L40.5494 178.146ZM146.852 154.591C147.005 154.387 147.157 154.182 147.31 153.977C147.37 153.64 147.434 153.324 147.515 152.982C147.684 152.753 147.828 152.506 147.997 152.277C149.384 149.565 150.917 146.932 152.138 144.146C157.031 132.96 161.808 121.733 166.702 110.546C167.173 109.475 168.617 108.505 168.532 107.57C168.414 106.058 169.055 104.972 169.517 103.751C170.301 101.684 171.207 99.6784 172.041 97.6441C179.48 79.6103 187.827 61.9945 197.137 44.8504C199.392 40.6823 201.814 36.588 204.139 32.4485C204.755 31.3469 205.604 30.2188 204.749 28.4909C204.201 29.1888 203.808 29.5946 203.521 30.0871C201.326 33.918 199.173 37.7405 196.978 41.5714C191.279 51.5826 186.184 61.9015 181.306 72.3271C174.809 86.2264 169.021 100.412 163.141 114.573C158.877 124.829 154.638 135.1 150.441 145.363C149.525 147.631 148.796 149.968 147.997 152.277C147.849 152.502 147.684 152.753 147.536 152.978C147.476 153.315 147.412 153.632 147.331 153.973C147.178 154.178 147.026 154.382 146.873 154.587L146.865 154.546L146.852 154.591ZM199.135 48.3334C198.979 48.5174 198.826 48.7221 198.69 48.9018C198.579 49.0979 198.452 49.3191 198.341 49.5152C198.145 50.032 197.932 50.5739 197.736 51.0907C197.571 51.3412 197.423 51.5667 197.259 51.8172C197.127 52.0176 196.995 52.2181 196.859 52.3977L196.809 52.3648C196.941 52.1644 197.072 51.9639 197.208 51.7843C197.377 51.5545 197.521 51.3083 197.69 51.0785C197.886 50.5617 198.099 50.0198 198.295 49.503C198.406 49.3069 198.533 49.0857 198.644 48.8896C198.801 48.7056 198.974 48.4966 199.131 48.3126L199.18 48.2375L199.135 48.3334ZM195.79 54.762C195.633 54.9459 195.476 55.1299 195.315 55.2931C195.204 55.4893 195.077 55.7104 194.966 55.9066C194.774 56.4441 194.557 56.9652 194.365 57.5028C194.217 57.7283 194.044 57.9373 193.896 58.1628C192.847 58.6395 192.799 59.5586 192.889 60.5141C191.434 61.2264 190.877 62.4024 190.983 63.9607C188.508 65.5985 187.951 68.1381 187.773 70.8374C187.621 71.0421 187.452 71.2719 187.299 71.4766C187.091 72.0392 186.899 72.5767 186.691 73.1394C186.539 73.3441 186.386 73.5488 186.217 73.7786C186.03 73.8172 185.864 73.8516 185.678 73.8902L185.71 73.8402C185.52 74.5939 185.33 75.3476 185.16 76.097C184.265 76.5852 183.658 77.2087 184.065 78.3368C183.857 78.8994 183.648 79.462 183.444 80.0454C183.296 80.2709 183.127 80.5007 182.975 80.7054C182.762 81.2472 182.575 81.8056 182.362 82.3474L181.893 83.0074C181.689 83.5907 181.485 84.1741 181.281 84.7575C181.064 85.2786 180.83 85.8248 180.593 86.3502L180.123 87.0101C179.281 87.9635 178.015 88.7452 178.782 90.3615C178.421 91.1288 178.056 91.8754 177.695 92.6427C177.487 93.2054 177.279 93.768 177.05 94.3349C176.885 94.5854 176.737 94.8109 176.572 95.0614C176.36 95.6032 176.168 96.1409 175.951 96.662C175.803 96.8874 175.655 97.1129 175.507 97.3384C175.363 97.5846 175.223 97.8516 175.084 98.1186C175.154 98.1472 175.221 98.1551 175.292 98.1837C175.34 97.8924 175.392 97.6218 175.461 97.3262C175.609 97.1007 175.757 96.8752 175.905 96.6498C176.118 96.1079 176.31 95.5703 176.522 95.0285C176.687 94.7779 176.835 94.5524 177 94.3019C177.208 93.7393 177.416 93.1767 177.645 92.6098C178.006 91.8424 178.371 91.0959 178.732 90.3286C179.173 89.2198 179.636 88.1067 180.073 86.9772C180.221 86.7517 180.394 86.5427 180.543 86.3172C180.755 85.7753 180.993 85.25 181.205 84.7081C181.409 84.1247 181.634 83.5371 181.838 82.9537C181.986 82.7282 182.139 82.5235 182.287 82.298C182.5 81.7561 182.712 81.2143 182.9 80.656C183.048 80.4305 183.217 80.2008 183.365 79.9753C183.573 79.4127 183.781 78.85 183.99 78.2874C184.355 77.5409 184.72 76.7942 185.085 76.0477C185.446 75.2803 185.806 74.513 186.163 73.7249C186.315 73.5202 186.463 73.2947 186.616 73.09C186.828 72.5481 187.016 71.9898 187.229 71.448C187.377 71.2225 187.529 71.0178 187.698 70.788C188.76 68.4903 189.825 66.2133 190.908 63.9113C191.536 62.7639 192.185 61.6122 192.814 60.4648C193.149 59.681 193.485 58.8971 193.846 58.1298C193.994 57.9043 194.146 57.6997 194.315 57.4699C194.528 56.928 194.72 56.3904 194.937 55.8693C195.048 55.6732 195.175 55.452 195.286 55.2559C195.463 55.0676 195.62 54.8837 195.798 54.6954L195.806 54.737L195.79 54.762ZM164.604 132.735L164.634 132.772L164.625 132.731L164.604 132.735ZM-52.9198 116.009L-52.8869 115.958C-52.7981 116.178 -52.7301 116.402 -52.6413 116.622C-52.7315 116.814 -52.8009 117.001 -52.6986 116.764C-52.7344 117.009 -52.6943 116.785 -52.675 116.564C-52.7552 116.386 -52.8396 116.187 -52.9198 116.009ZM25.6481 106.549C25.5164 106.749 25.3847 106.949 25.2322 107.154C25.1413 107.238 25.0461 107.301 24.9924 107.355C25.0461 107.301 25.1163 107.221 25.1821 107.121C25.3138 106.921 25.4455 106.72 25.5772 106.52C25.7254 106.294 25.8693 106.048 26.0174 105.823C27.0889 104.41 28.1769 102.973 29.2484 101.561C30.1825 101.368 30.4237 100.755 30.5103 100.023C30.3393 99.9281 30.1517 99.8587 29.9806 99.7642C29.7602 100.373 29.5397 100.981 29.3193 101.589C27.3745 102.338 26.6917 104.06 26.0883 105.851C25.9401 106.077 25.7963 106.323 25.6481 106.549ZM-95.3447 151.694L-95.2946 151.727C-95.4592 151.977 -95.6282 152.207 -95.7928 152.457C-95.8529 152.795 -95.9173 153.111 -95.9774 153.448C-96.1464 153.678 -96.311 153.928 -96.4592 154.154C-96.5193 154.491 -96.5794 154.828 -96.6395 155.165C-96.8085 155.395 -96.9566 155.621 -97.1255 155.85C-97.1856 156.188 -97.2458 156.525 -97.3266 156.866C-97.4956 157.096 -97.648 157.301 -97.817 157.53C-98.0503 158.076 -98.2629 158.618 -98.4962 159.165C-98.5685 159.547 -98.6451 159.91 -98.7174 160.293C-98.8698 160.497 -99.018 160.723 -99.1704 160.928C-99.247 161.29 -99.3401 161.677 -99.4167 162.039C-99.6707 162.59 -99.9041 163.136 -100.158 163.686C-100.52 164.237 -101.045 164.736 -101.245 165.34C-103.292 171.348 -105.551 177.271 -107.207 183.393C-108.838 189.423 -109.915 195.621 -111.001 201.776C-111.934 207.1 -112.572 212.492 -111.879 217.933C-111.755 219.055 -111.61 220.172 -111.491 221.273C-111.555 222.217 -111.615 223.182 -111.675 224.147C-111.526 224.138 -111.393 224.154 -111.243 224.144C-111.337 223.168 -111.447 222.217 -111.541 221.24C-111.665 220.119 -111.805 219.022 -111.929 217.9C-111.794 216.985 -111.613 216.082 -111.502 215.15C-111.135 211.697 -110.946 208.216 -110.445 204.778C-108.602 191.82 -105.214 179.214 -100.977 166.843C-100.626 165.818 -100.438 164.74 -100.162 163.665C-99.9334 163.099 -99.7001 162.552 -99.4711 161.985C-99.3737 161.619 -99.3014 161.236 -99.2041 160.87C-99.0516 160.665 -98.9035 160.439 -98.751 160.235C-98.6787 159.852 -98.6021 159.489 -98.5298 159.107C-98.2965 158.56 -98.0839 158.019 -97.8506 157.472C-97.6817 157.243 -97.5335 157.017 -97.3603 156.808C-97.3002 156.471 -97.2193 156.13 -97.1592 155.792C-96.9902 155.563 -96.8421 155.337 -96.6732 155.107C-96.613 154.77 -96.5529 154.433 -96.4928 154.096C-96.3239 153.866 -96.18 153.62 -96.0111 153.39C-95.951 153.053 -95.8866 152.737 -95.8264 152.4C-95.6618 152.149 -95.4929 151.919 -95.349 151.673L-95.3447 151.694ZM-92.9341 145.978L-92.9255 146.02L-92.9541 146.09L-92.9341 145.978ZM39.4206 107.725C39.5223 107.379 39.6447 107.029 39.742 106.663L39.7921 106.696C39.6905 107.041 39.5681 107.391 39.4707 107.758L39.4206 107.725ZM33.5855 107.352L33.6721 107.248L33.6356 107.385L33.5855 107.352ZM171.06 106.398L171.164 106.376L171.069 106.439L171.06 106.398ZM-19.9416 167.739C-19.2895 167.647 -18.9259 167.312 -19.097 166.59L-19.0469 166.623C-19.3353 167.007 -19.6238 167.392 -19.8915 167.772L-19.9416 167.739ZM-0.91432 136.354C-1.19849 136.759 -1.48265 137.164 -1.74175 137.586C-2.1204 138.162 -2.47829 138.734 -2.85262 139.331L-2.86122 139.289C-2.50334 138.717 -2.12469 138.141 -1.77111 137.549C-1.48694 137.143 -1.20279 136.738 -0.939389 136.337L-0.897864 136.329L-0.91432 136.354ZM166.394 128.728C166.603 128.165 166.807 127.582 167.015 127.019C167.605 125.685 168.199 124.372 168.809 123.033C169.815 121.093 170.933 119.174 171.797 117.177C176.182 107.091 180.255 96.8537 184.903 86.8869C190.428 74.9854 196.433 63.3093 202.195 51.51C202.667 50.5466 202.968 49.4886 203.343 48.4801L203.346 48.2847L203.168 48.3648C202.653 49.1207 202.043 49.8315 201.624 50.6325C196.791 60.2263 191.928 69.7829 187.169 79.4262C184.622 84.5856 182.191 89.7859 179.906 95.0642C176.865 102.123 173.989 109.255 171.114 116.387C170.243 118.559 169.589 120.837 168.839 123.07C168.249 124.405 167.655 125.718 167.065 127.052C166.857 127.615 166.653 128.198 166.445 128.761C166.276 128.991 166.127 129.216 165.963 129.467C165.73 130.013 165.513 130.534 165.279 131.08L165.271 131.039C165.463 130.501 165.7 129.976 165.913 129.434C166.082 129.204 166.226 128.958 166.394 128.728ZM-56.7615 112.193C-56.8675 112.518 -56.9734 112.843 -57.1001 113.172C-56.9669 113.188 -56.8338 113.203 -56.7007 113.219C-56.7322 112.858 -56.7801 112.521 -56.8324 112.164C-56.7308 111.818 -56.6334 111.452 -56.5318 111.106C-56.6857 111.095 -56.8353 111.104 -57.0099 111.097C-56.9326 111.471 -56.8553 111.844 -56.778 112.218L-56.7615 112.193ZM310.943 56.8241L310.976 56.7739C311.355 56.8255 311.717 56.902 312.096 56.9536C312.066 56.8083 312.056 56.6587 312.047 56.5091C311.678 56.6072 311.313 56.726 310.943 56.8241ZM216.57 46.9122C215.746 48.0568 215.737 49.2708 216.257 50.527C215.998 51.5763 215.61 52.6307 215.526 53.6872C215.021 60.3505 214.408 67.0145 214.207 73.68C214.01 80.2581 214.187 86.867 214.314 93.443C214.353 95.6211 214.779 97.7842 215.03 99.9402C215.252 96.9289 214.987 93.9748 215.046 91.0185C215.24 81.389 215.521 71.763 215.798 62.1163C215.905 58.241 216.075 54.3529 216.203 50.4733C216.319 49.2586 216.457 48.0396 216.573 46.8249L216.497 46.6675L216.582 46.8664L216.57 46.9122ZM43.1364 110.723C43.0705 112.078 42.9797 113.418 42.9138 114.773C42.9053 115.36 42.8967 115.946 42.8838 116.511C42.5617 117.465 42.148 118.395 41.9383 119.369C41.3013 122.359 40.7516 125.351 40.1812 128.348C39.8198 130.263 39.4791 132.174 39.1427 134.105C38.802 136.015 38.3118 137.935 38.2374 139.877C38.1544 141.777 36.6226 143.371 37.2554 145.384C37.2941 145.57 37.113 145.846 37.0314 146.079C36.4409 147.933 35.3093 149.683 35.9385 151.782C36.0366 152.151 35.9943 152.68 35.7968 152.98C34.9779 154.254 35.2442 155.541 35.6229 156.848C35.6616 157.034 35.7002 157.221 35.7346 157.387C35.5184 158.017 34.9952 158.731 35.1484 159.262C35.8564 161.951 35.2008 164.641 35.2559 167.314C35.334 170.934 35.6283 174.553 35.8352 178.169L35.7851 178.136C35.9146 176.984 36.0857 175.823 36.1279 174.667C36.3268 170.188 36.326 165.686 36.7246 161.23C37.7895 149.429 39.3869 137.691 41.5004 126.041C42.0823 122.89 42.3936 119.687 42.838 116.499C42.8466 115.913 42.8552 115.327 42.868 114.761C43.9446 113.478 43.6568 112.087 43.1113 110.706L43.1199 110.748L43.1364 110.723ZM-30.9565 186.794L-30.9236 186.744C-30.6308 187.008 -30.3588 187.277 -29.8735 187.739C-29.2543 186.442 -28.7419 185.362 -28.1721 184.14C-29.7934 184.151 -30.0053 184.173 -29.8914 185.037C-29.7726 186.03 -30.2106 186.423 -30.9357 186.79L-30.9565 186.794ZM61.8101 155.672L61.8015 155.63C61.5424 156.052 61.279 156.453 60.9991 156.879L61.0321 156.829C60.642 157.559 60.2311 158.293 59.8868 159.035C59.5017 159.894 59.1625 160.765 58.8025 161.641C58.9692 161.715 59.1611 161.805 59.3279 161.878C62.4107 157.842 64.4792 153.193 67.0273 148.769C66.313 148.874 65.716 149.127 65.4197 149.578C64.165 151.57 63.0061 153.606 61.8058 155.651L61.8101 155.672ZM83.7391 123.037C85.9716 121.168 87.3896 118.71 89.0201 116.338C91.8281 112.228 94.941 108.337 97.9787 104.397C101.223 100.197 104.542 96.0471 107.836 91.8804C108.281 91.312 108.68 90.7315 109.389 89.7623C107.915 90.0673 107.375 90.6986 106.848 91.5003C106.058 92.7028 105.167 93.8395 104.272 94.9555C102.842 96.7235 101.356 98.4378 99.9299 100.227C97.0439 103.854 94.1829 107.498 91.3513 111.18C89.0308 114.193 86.7811 117.234 84.5358 120.296C83.9631 121.086 83.2287 121.93 83.7642 123.054C83.4414 123.272 83.1393 123.486 82.8165 123.704C82.8709 123.758 82.9088 123.837 82.9632 123.89C83.2066 123.602 83.45 123.313 83.7141 123.021L83.7391 123.037ZM147.787 81.2758C147.535 82.1505 147.175 83.026 147.061 83.9372C145.347 96.2624 143.52 108.568 142.006 120.916C140.681 131.776 140.167 142.684 141.067 153.624C141.144 154.517 141.283 155.398 141.401 156.282C141.916 155.526 142.023 154.79 141.981 154.063C141.206 143.205 141.783 132.392 143.058 121.608C144.278 111.182 145.763 100.787 147.07 90.3643C147.441 87.3436 147.529 84.3165 147.766 81.2801L147.769 81.0847C147.769 81.0847 147.799 81.23 147.812 81.2923L147.787 81.2758ZM207.557 56.3966C207.285 54.245 207.009 52.0725 206.737 49.9209C206.375 50.472 206.187 51.0304 206.154 51.6001C205.714 60.458 205.14 69.3002 204.942 78.1732C204.827 83.9983 205.252 89.8198 205.482 95.6384C205.523 96.8854 205.843 98.118 206.014 99.3599C206.239 95.7415 206.132 92.1919 206.159 88.658C206.186 84.6045 206.234 80.5467 206.394 76.5089C206.531 73.2986 206.846 70.1162 207.075 66.9302L206.959 66.3697C207.136 63.0427 207.313 59.7157 207.495 56.4095L207.545 56.4424L207.557 56.3966ZM145.146 67.882C144.012 68.0517 143.913 68.8297 143.953 69.7524C144.008 71.2777 144.218 72.8146 144.029 74.3041C143.407 79.6711 142.611 85.031 141.928 90.4109C140.613 100.9 139.253 111.377 138.046 121.866C136.958 131.464 136.528 141.099 136.966 150.749C137.099 153.904 137.137 157.121 138.346 160.14C138.453 159.295 138.456 158.472 138.371 157.645C137.662 150.973 137.646 144.309 137.947 137.602C138.672 120.914 141.127 104.43 143.266 87.8827C143.749 84.1462 144.052 80.3819 144.88 76.639C145.509 73.8245 145.069 70.7552 145.087 67.8075C145.048 67.6207 145.014 67.4547 145.066 67.7038C144.956 67.4883 145.057 67.6623 145.137 67.8405L145.146 67.882ZM-58.3919 157.144L-58.3547 157.114C-58.7955 160.842 -59.2572 164.574 -59.6937 168.323L-59.6565 168.294C-59.7359 169.479 -59.8154 170.664 -59.9198 171.833C-60.8359 181.006 -61.6646 190.183 -61.4618 199.427C-61.4066 202.1 -61.6092 204.783 -61.6206 207.447C-61.6284 209.397 -60.914 211.176 -59.9591 212.862C-59.967 209.789 -60.2033 206.765 -60.3315 203.739C-60.7247 193.993 -60.0742 184.269 -59.0036 174.588C-57.3218 159.282 -55.4195 143.995 -53.6504 128.693C-53.45 126.942 -53.4951 125.154 -53.4279 123.387C-53.304 122.625 -53.1967 121.889 -53.0729 121.127C-53.2683 121.124 -53.4845 121.126 -53.6799 121.123C-53.5875 121.883 -53.4744 122.639 -53.382 123.399C-53.868 124.712 -54.5953 126.01 -54.7484 127.362C-55.2415 131.36 -55.4225 135.402 -55.9156 139.401C-56.6578 145.334 -57.5581 151.235 -58.3919 157.144ZM-65.0205 102.407C-65.4872 102.872 -66.0791 103.254 -66.3955 103.817C-71.0437 111.901 -75.8214 119.881 -80.2277 128.088C-88.0546 142.674 -94.8307 157.735 -100.139 173.402C-105.693 189.768 -109.577 206.461 -109.262 223.886C-109.242 224.401 -109.155 224.924 -109.094 225.431C-108.825 225.159 -108.769 224.909 -108.754 224.668C-108.611 213.014 -106.845 201.566 -103.985 190.281C-96.3932 160.331 -83.0349 132.933 -67.1792 106.621C-66.3733 105.285 -65.7721 103.797 -65.0663 102.395L-65.0205 102.407ZM32.5771 114.509C31.842 117.757 31.1027 120.984 30.3469 124.236L30.3798 124.186C30.1222 125.451 29.848 126.742 29.5904 128.007L29.6233 127.957C29.4465 128.881 29.2697 129.805 29.0929 130.729L29.1259 130.679C28.1325 135.712 26.9186 140.725 26.1957 145.81C25.6117 149.893 25.785 154.078 25.3134 158.18C24.6149 164.429 24.9973 170.671 25.3546 176.896C25.4154 177.922 25.6631 178.91 25.8113 179.94C26.5564 177.578 26.7825 175.323 26.3802 172.96C26.0989 171.287 26.6772 169.479 26.786 167.703C27.0465 163.103 26.9783 158.485 27.8336 153.935C28.1507 152.225 28.4635 150.493 28.714 148.774C28.885 147.613 28.9022 146.441 28.9816 145.256C28.9429 145.069 28.9043 144.882 28.8656 144.695C29.0409 142.927 29.2206 141.18 29.3959 139.412L29.363 139.462C29.6235 137.373 29.8632 135.289 30.1237 133.2C30.9303 126.951 31.7326 120.68 32.5392 114.431L33.2828 111.852C33.0831 111.829 32.9042 111.801 32.7045 111.777C32.673 112.671 32.6207 113.57 32.5893 114.464L32.5771 114.509ZM139.94 74.0029C139.714 73.7466 139.462 73.4739 139.01 72.9614C138.883 73.9184 138.762 74.4846 138.708 75.0587C138.297 78.9318 137.949 82.7921 137.492 86.6531C136.041 99.0971 134.431 111.509 133.092 123.973C131.886 135.197 131.549 146.437 133.137 157.667C133.325 158.992 133.674 160.262 133.945 161.57C134.343 160.881 134.393 160.178 134.359 159.493C134.268 158.321 134.023 157.138 133.953 155.962C133.386 146.316 133.725 136.657 134.618 127.056C135.948 112.667 137.233 98.2661 139.828 84.0268C140.048 82.7906 140.019 81.4979 140.019 80.2424C140 78.6877 139.894 77.1294 139.83 75.5626C140.084 75.6399 140.363 75.7336 140.617 75.8109C140.828 75.0529 141.301 74.1975 139.956 73.9778L139.94 74.0029ZM-71.9619 192.097C-72.7778 198.825 -72.4799 205.495 -70.852 212.107C-70.3832 211.339 -69.865 210.495 -70.011 209.79C-70.4706 207.569 -70.0319 205.4 -69.8343 203.216C-69.7299 202.047 -69.8 200.871 -69.891 199.699C-70.0399 197.933 -70.488 196.186 -70.3957 194.435C-70.171 189.453 -69.9299 184.446 -69.3767 179.483C-67.964 166.852 -66.3723 154.249 -64.8265 141.634C-64.4128 138.193 -63.5418 134.766 -63.5397 131.324C-63.5369 126.734 -63.0223 122.212 -62.5536 117.677C-62.4906 117.145 -62.5357 116.613 -62.5143 116.089C-62.9573 116.354 -63.0675 116.658 -63.1112 116.97C-64.5648 127.207 -66.0226 137.422 -67.4511 147.675C-67.59 148.678 -67.5334 149.684 -67.5806 150.711C-67.7753 151.444 -68.0616 152.153 -68.1482 152.885C-69.3169 162.197 -70.5565 171.48 -71.5713 180.803C-71.9828 184.568 -71.8661 188.375 -71.9905 192.168L-71.9991 192.126L-71.9619 192.097ZM-115.655 214.017C-115.411 213.729 -115.237 213.628 -115.217 213.516C-115.028 211.918 -114.906 210.312 -114.717 208.715C-113.188 196.752 -110.842 184.968 -107.156 173.49C-99.4377 149.488 -88.3705 127.024 -75.5018 105.42C-72.4347 100.262 -68.9002 95.3741 -65.5869 90.3592C-65.1754 89.7329 -64.4267 89.1667 -65.1096 87.7494C-67.1588 90.2948 -69.1773 92.4658 -70.7992 94.8795C-77.695 105.073 -83.7267 115.781 -89.2495 126.751C-96.1838 140.525 -102.518 154.585 -107.572 169.181C-111.406 180.257 -114.145 191.604 -115.41 203.273C-115.786 206.793 -115.987 210.32 -115.655 214.017ZM-64.7041 212.004C-64.611 211.616 -64.4142 211.208 -64.425 210.842C-64.6942 207.239 -65.2046 203.622 -65.2784 200.022C-65.4554 190.274 -64.5179 180.577 -63.4058 170.888C-61.3446 153.231 -59.1962 135.577 -57.0892 117.932C-56.9983 117.22 -56.9991 116.485 -56.954 115.761C-57.1329 115.733 -57.2911 115.701 -57.4701 115.673C-57.6426 116.618 -57.8816 117.555 -57.9875 118.507C-58.6789 123.954 -59.3201 129.433 -59.9907 134.876C-61.5974 147.72 -63.2914 160.56 -64.8065 173.429C-65.968 183.194 -66.4517 192.991 -66.4737 202.824C-66.4779 205.942 -66.1873 209.02 -64.7041 212.004ZM31.2227 179.729C31.5496 172.627 31.6741 165.696 32.2394 158.803C32.804 151.803 33.743 144.833 34.6655 137.889C35.5601 131.123 36.9916 124.441 37.6156 117.623C36.7989 120.476 36.099 123.37 35.6903 126.312C34.6619 133.582 32.3972 140.631 31.7933 147.964C31.2322 154.877 30.7377 161.798 30.4594 168.718C30.3171 172.319 30.0172 175.996 31.2019 179.734L31.2227 179.729ZM212.241 44.193C210.119 62.8151 208.718 81.4614 210.987 100.171C209.957 81.4864 211.554 62.843 212.241 44.193ZM111.553 87.5612C112.01 86.947 112.447 86.3372 112.904 85.723C112.749 85.6035 112.59 85.4632 112.415 85.348C111.703 85.7767 110.748 85.9743 111.553 87.5612ZM148.245 76.8952C147.983 76.8844 147.704 76.8988 147.442 76.888C147.501 77.5902 147.543 78.3175 147.602 79.0197L148.23 79.0196C148.233 78.3046 148.237 77.5895 148.245 76.8952ZM58.1533 164.048C57.1426 163.976 56.6036 164.196 57.4869 165.117C57.746 164.695 57.9393 164.374 58.1533 164.048ZM-56.1546 109.058C-56.355 108.927 -56.501 108.849 -56.6263 108.766C-56.6914 108.975 -56.7981 109.191 -56.8174 109.412C-56.8045 109.474 -56.5669 109.577 -56.4416 109.659C-56.3307 109.463 -56.2448 109.25 -56.1546 109.058ZM140.772 68.5055C140.627 68.5356 140.494 68.5199 140.344 68.5292C140.384 68.9322 140.445 69.3309 140.506 69.7296C140.506 69.7296 140.784 69.7152 140.934 69.7059C140.852 69.3115 140.812 68.9085 140.751 68.5098L140.772 68.5055ZM52.0548 166.587C51.7248 166.352 51.4571 166.105 51.3991 166.138C51.1758 166.314 50.9861 166.548 50.8673 166.811C50.8387 166.882 51.2359 167.233 51.319 167.216C51.5595 167.123 51.7449 166.868 52.0383 166.612L52.0548 166.587ZM-67.6847 99.3653C-67.6847 99.3653 -67.9224 99.2629 -68.0183 99.2179C-68.0469 99.2887 -68.092 99.3846 -68.0877 99.4054C-67.9875 99.4712 -67.8709 99.512 -67.7542 99.5528C-67.7255 99.482 -67.7134 99.4362 -67.6847 99.3653ZM206.43 102.629L206.517 102.524L206.412 102.438L206.451 102.625L206.43 102.629ZM-17.6762 164.564C-17.7019 164.44 -17.6862 164.307 -17.6912 164.178C-17.7535 164.191 -17.878 164.216 -17.8694 164.258C-17.8895 164.37 -17.8802 164.52 -17.8794 164.628C-17.8172 164.615 -17.7384 164.577 -17.6805 164.543L-17.6762 164.564ZM-51.6803 104.842C-51.7103 104.697 -51.7612 104.556 -51.8163 104.394C-51.9322 104.461 -52.1398 104.504 -52.1641 104.596C-52.2006 104.733 -52.104 104.887 -52.074 105.032C-51.9372 104.96 -51.8213 104.893 -51.6846 104.821L-51.6803 104.842ZM207.013 46.4436C207.112 46.2933 207.236 46.1594 207.272 46.0219C207.276 45.9346 207.105 45.8401 207 45.7535C206.922 45.8996 206.794 46.0127 206.762 46.1709C206.754 46.2375 206.909 46.357 207.018 46.4644L207.013 46.4436ZM117.186 80.789C117.186 80.789 117.136 80.648 117.098 80.5692C116.982 80.6365 116.841 80.6874 116.729 80.7754C116.729 80.7754 116.78 80.9164 116.814 80.9744C116.93 80.9071 117.066 80.8355 117.182 80.7682L117.186 80.789ZM148.215 69.325L148.312 69.4782L148.385 69.3114L148.199 69.35L148.215 69.325ZM314.701 58.6657C314.701 58.6657 314.937 58.4438 314.92 58.3608C314.898 58.257 314.748 58.1582 314.66 58.0465C314.573 58.151 314.424 58.2684 314.442 58.3515C314.463 58.4553 314.613 58.554 314.697 58.6449L314.701 58.6657ZM212.586 41.0478C212.586 41.0478 212.549 41.1853 212.537 41.2311C212.603 41.2389 212.679 41.2883 212.716 41.259C212.757 41.2504 212.773 41.1173 212.765 41.0758C212.756 41.0342 212.648 41.0349 212.581 41.0271L212.586 41.0478ZM40.5879 99.4526L40.7747 99.4139L40.6824 99.2816L40.5879 99.4526ZM-52.534 114.63L-52.6206 114.734L-52.4832 114.771L-52.5132 114.626L-52.534 114.63ZM287.004 45.3261L287.034 45.4713L287.162 45.3583L287.004 45.3261ZM3.15101 118.131C3.03005 118.069 2.87114 117.929 2.76735 117.95C2.66356 117.972 2.56908 118.143 2.4617 118.251C2.63279 118.346 2.77881 118.424 2.94988 118.518C3.01144 118.398 3.09377 118.272 3.15101 118.131ZM299.383 38.1972C299.383 38.1972 299.516 38.213 299.583 38.2209C299.57 38.1586 299.615 38.0627 299.569 38.0505C299.519 38.0176 299.436 38.0348 299.39 38.0226C299.403 38.0849 299.391 38.1307 299.383 38.1972ZM265.625 56.7634C265.625 56.7634 265.553 56.6267 265.519 56.5687C265.495 56.6603 265.471 56.7519 265.426 56.8478C265.488 56.8349 265.546 56.8013 265.604 56.7677L265.625 56.7634ZM144.922 66.0668L144.92 65.8506L144.726 65.9558L144.922 66.0668ZM141.031 63.5816L140.902 63.6947L141.065 63.7477L141.035 63.6024L141.031 63.5816Z" fill="#FAFAFA"/>
<path d="M8.20278 137.001C10.7094 133.214 13.216 129.427 15.7642 125.631C16.077 125.155 16.5694 124.815 16.9824 124.405L16.9323 124.372C14.3269 128.309 11.7215 132.247 9.09106 136.168C8.87704 136.494 8.46689 136.708 8.15267 136.968L8.20278 137.001Z" fill="#FAFAFA"/>
<path d="M314.49 60.6793C313.938 60.8368 313.365 60.9985 312.673 61.2069C311.974 60.5505 310.804 60.2299 310.944 58.8155L310.923 58.8197C311.481 58.8992 312.034 58.9579 312.592 59.0373L312.542 59.0044C312.888 59.8418 313.444 60.3329 314.395 60.2227L314.341 60.169C314.38 60.3558 314.418 60.5426 314.457 60.7294L314.49 60.6793Z" fill="#FAFAFA"/>
<path d="M23.3653 115.289C22.137 116.886 20.9295 118.478 19.7012 120.074L19.7513 120.107C20.9796 118.511 22.1871 116.919 23.4154 115.322L23.3653 115.289Z" fill="#FAFAFA"/>
<path d="M41.1033 145.777C41.381 144.399 41.663 143.042 41.9407 141.664L41.8906 141.631C41.6129 143.009 41.3352 144.387 41.0575 145.764L41.0869 145.802L41.1033 145.777Z" fill="#FAFAFA"/>
<path d="M44.1171 127.598C43.8645 128.993 43.6326 130.383 43.38 131.777L43.4301 131.81C43.6827 130.416 43.9146 129.026 44.1673 127.631L44.1171 127.598Z" fill="#FAFAFA"/>
<path d="M5.39561 141.216C6.04195 140.26 6.66323 139.287 7.30957 138.331L7.25946 138.298C6.61312 139.254 5.99184 140.227 5.3455 141.183L5.39561 141.216Z" fill="#FAFAFA"/>
<path d="M4.7429 143.084C4.07581 144.045 3.40869 145.005 2.74159 145.966L2.79172 145.999C3.02862 144.738 3.62484 143.748 4.7973 143.138L4.7472 143.105L4.7429 143.084Z" fill="#FAFAFA"/>
<path d="M27.4658 109.787C26.76 110.561 26.0378 111.36 25.3321 112.133L25.3822 112.166C26.1087 111.388 26.8144 110.614 27.541 109.836L27.4908 109.803L27.4658 109.787Z" fill="#FAFAFA"/>
<path d="M44.6184 124.897C44.4581 125.796 44.2978 126.695 44.1375 127.594L44.1876 127.627C44.3479 126.728 44.5082 125.829 44.6685 124.93L44.6184 124.897Z" fill="#FAFAFA"/>
<path d="M45.1038 122.222C44.9435 123.121 44.7832 124.02 44.6228 124.919L44.673 124.952C44.8333 124.053 44.9936 123.154 45.1539 122.254L45.1038 122.222Z" fill="#FAFAFA"/>
<path d="M41.9415 139.889C42.1519 139.023 42.3459 138.182 42.5563 137.315L42.5062 137.283C42.3122 138.124 42.1018 138.99 41.9078 139.831L41.9579 139.864L41.9415 139.889Z" fill="#FAFAFA"/>
<path d="M43.3802 131.777C43.2199 132.676 43.0638 133.596 42.9035 134.495L42.9536 134.528C43.1139 133.629 43.2742 132.73 43.4303 131.81L43.3802 131.777Z" fill="#FAFAFA"/>
<path d="M42.5571 137.316C42.6881 136.38 42.8191 135.444 42.95 134.508L42.8999 134.475C42.7689 135.411 42.638 136.347 42.507 137.283L42.5571 137.316Z" fill="#FAFAFA"/>
<path d="M5.34548 141.183C5.15009 141.808 4.93393 142.437 4.73853 143.062C4.73853 143.062 4.78863 143.095 4.79293 143.116C4.98832 142.491 5.17944 141.845 5.39559 141.216L5.34548 141.183Z" fill="#FAFAFA"/>
<path d="M95.4616 111.693C95.8581 111.308 96.2797 110.939 96.6762 110.554L96.6261 110.521C96.2296 110.906 95.808 111.275 95.4115 111.66L95.4616 111.693Z" fill="#FAFAFA"/>
<path d="M162.705 143.54C162.497 144.103 162.264 144.649 162.055 145.211L162.064 145.253C162.012 144.896 161.922 144.568 161.849 144.215L161.821 144.286C162.139 144.047 162.437 143.812 162.751 143.552L162.705 143.54Z" fill="#FAFAFA"/>
<path d="M40.3469 152.168C40.4686 151.71 40.5902 151.252 40.7327 150.789L40.6826 150.756C40.5609 151.215 40.4392 151.673 40.3011 152.156L40.3512 152.189L40.3469 152.168Z" fill="#FAFAFA"/>
<path d="M40.8431 149.122C40.7801 149.655 40.7421 150.204 40.6792 150.736L40.7293 150.769C40.7923 150.237 40.8302 149.688 40.8889 149.134L40.8388 149.101L40.8431 149.122Z" fill="#FAFAFA"/>
<path d="M41.0019 147.486C40.9389 148.019 40.9009 148.568 40.838 149.1L40.8881 149.133C40.951 148.601 40.989 148.052 41.0519 147.519L41.0019 147.486Z" fill="#FAFAFA"/>
<path d="M41.0526 145.745C41.044 146.331 41.0104 146.901 41.0018 147.487L41.0519 147.52C41.0605 146.933 41.0941 146.364 41.1027 145.777L41.0526 145.745Z" fill="#FAFAFA"/>
<path d="M40.3188 152.131C40.2558 152.663 40.1677 153.18 40.1048 153.712L40.1549 153.745C40.2178 153.212 40.3059 152.696 40.3689 152.164L40.3188 152.131Z" fill="#FAFAFA"/>
<path d="M45.3498 121.001C45.3656 120.868 45.4021 120.731 45.41 120.664C45.3978 120.71 45.3613 120.848 45.3205 120.964L45.3706 120.997L45.3498 121.001Z" fill="#FAFAFA"/>
<path d="M41.9117 139.852C41.9032 140.439 41.8946 141.025 41.8903 141.632L41.9404 141.665C41.949 141.079 41.9533 140.472 41.9411 139.89L41.891 139.857L41.9117 139.852Z" fill="#FAFAFA"/>
<path d="M27.5161 109.819C27.7544 109.402 27.9971 109.006 28.2354 108.588L28.1853 108.555C27.947 108.973 27.7043 109.369 27.4452 109.791L27.4953 109.824L27.5161 109.819Z" fill="#FAFAFA"/>
<path d="M40.1042 153.713C40.1014 153.908 40.1193 154.099 40.1014 153.908C40.0527 154.091 40.1014 153.908 40.1543 153.746L40.1042 153.713Z" fill="#FAFAFA"/>
<path d="M195.603 69.2387C195.539 69.5551 195.45 69.855 195.385 70.1714L195.435 70.2043C195.5 69.8879 195.589 69.588 195.653 69.2716L195.603 69.2387Z" fill="#FAFAFA"/>
<path d="M179.75 104.664C179.815 104.347 179.854 104.015 179.919 103.698L179.869 103.665C179.804 103.982 179.765 104.314 179.7 104.631L179.75 104.664Z" fill="#FAFAFA"/>
<path d="M167.151 134.264C167.215 133.947 167.279 133.631 167.34 133.294L167.289 133.261C167.225 133.577 167.161 133.894 167.121 134.227L167.171 134.26L167.151 134.264Z" fill="#FAFAFA"/>
<path d="M166.207 135.563L166.064 136.545L166.114 136.578C166.153 136.245 166.218 135.929 166.257 135.596L166.207 135.563Z" fill="#FAFAFA"/>
<path d="M180.412 102.946C180.476 102.63 180.566 102.33 180.63 102.014L180.58 101.981C180.516 102.297 180.426 102.597 180.362 102.914L180.412 102.946Z" fill="#FAFAFA"/>
<path d="M169.749 127.578C169.689 127.915 169.646 128.228 169.585 128.565L169.636 128.598C169.7 128.281 169.739 127.948 169.804 127.632L169.754 127.599L169.749 127.578Z" fill="#FAFAFA"/>
<path d="M147.284 105.84C147.284 105.84 147.19 105.902 147.132 105.936C147.173 105.927 147.215 105.919 147.252 105.89L147.284 105.84Z" fill="#FAFAFA"/>
<path d="M182.161 98.9489C182.246 98.6282 182.314 98.3326 182.4 98.0119L182.349 97.9789C182.285 98.2953 182.2 98.616 182.131 98.9116L182.14 98.9532L182.161 98.9489Z" fill="#FAFAFA"/>
<path d="M176.444 112.123C176.55 111.798 176.673 111.448 176.779 111.123L176.728 111.09C176.643 111.41 176.562 111.752 176.477 112.072L176.444 112.123Z" fill="#FAFAFA"/>
<path d="M147.273 105.887C147.273 105.887 147.269 105.866 147.307 105.836L147.273 105.887Z" fill="#FAFAFA"/>
<path d="M192.876 75.4084C192.94 75.092 193.029 74.7921 193.094 74.4757L193.044 74.4428C192.979 74.7592 192.911 75.0548 192.826 75.3755L192.876 75.4084Z" fill="#FAFAFA"/>
<path d="M92.9892 115.43L92.9226 115.531L93.0188 115.467L92.9892 115.43Z" fill="#FAFAFA"/>
<path d="M183.038 96.2778C182.974 96.5941 182.884 96.894 182.82 97.2104L182.87 97.2434C182.934 96.927 183.024 96.627 183.088 96.3107L183.038 96.2778Z" fill="#FAFAFA"/>
<path d="M130.944 70.1715L130.832 70.2596L130.948 70.1922L130.944 70.1715Z" fill="#FAFAFA"/>
<path d="M164.438 139.567C164.378 139.904 164.334 140.216 164.274 140.553L164.324 140.586C164.384 140.249 164.428 139.937 164.488 139.6L164.438 139.567Z" fill="#FAFAFA"/>
<path d="M184.637 93.2411L184.694 93.0992L184.587 93.2081L184.637 93.2411Z" fill="#FAFAFA"/>
<path d="M148.139 99.9266C148.139 99.9266 148.027 100.015 147.99 100.044C148.031 100.035 148.069 100.006 148.127 99.9724L148.16 99.9223L148.139 99.9266Z" fill="#FAFAFA"/>
<path d="M170.437 125.879C170.373 126.195 170.308 126.512 170.244 126.828L170.294 126.861C170.358 126.544 170.423 126.228 170.487 125.912L170.437 125.879Z" fill="#FAFAFA"/>
<path d="M45.2994 120.968C45.2358 121.392 45.1678 121.796 45.0833 122.225L45.1334 122.258C45.2014 121.854 45.2651 121.43 45.3538 121.022L45.3037 120.989L45.2994 120.968Z" fill="#FAFAFA"/>
<path d="M163.355 141.869C163.274 142.21 163.214 142.547 163.133 142.889L163.146 142.951C163.094 142.594 163.025 142.261 162.931 141.913L162.878 141.967C163.052 141.974 163.223 141.961 163.384 141.906L163.334 141.873L163.355 141.869Z" fill="#FAFAFA"/>
<path d="M148.106 99.9768C148.106 99.9768 148.123 99.9513 148.14 99.9258L148.106 99.9768Z" fill="#FAFAFA"/>
<path d="M198.233 64.0621C198.127 64.3871 198.026 64.7329 197.92 65.0579L197.887 65.108C198.013 64.7787 198.14 64.4494 198.267 64.1201L198.258 64.0786L198.233 64.0621Z" fill="#FAFAFA"/>
<path d="M186.406 89.2382C186.475 88.9426 186.56 88.6219 186.629 88.3263L186.62 88.2848C186.51 88.589 186.425 88.9097 186.356 89.2053L186.406 89.2382Z" fill="#FAFAFA"/>
<path d="M187.632 85.9535C187.567 86.2699 187.478 86.5699 187.413 86.8862L187.443 86.9234C187.507 86.607 187.597 86.3071 187.682 85.9864L187.632 85.9535Z" fill="#FAFAFA"/>
<path d="M172.088 122.874C172.148 122.537 172.233 122.216 172.293 121.879L172.285 121.838C172.224 122.175 172.123 122.52 172.038 122.841L172.088 122.874Z" fill="#FAFAFA"/>
<path d="M188.572 84.6337C188.572 84.6337 188.65 84.596 188.708 84.5625C188.646 84.5753 188.584 84.5881 188.543 84.5967L188.593 84.6295L188.572 84.6337Z" fill="#FAFAFA"/>
<path d="M103.162 101.83L103.331 101.817L103.195 101.781L103.162 101.83Z" fill="#FAFAFA"/>
<path d="M103.195 101.78L103.183 101.934L103.162 101.831L103.195 101.78Z" fill="#FAFAFA"/>
<path d="M188.172 85.2145C188.304 85.014 188.436 84.8137 188.572 84.634L188.522 84.601C188.39 84.8014 188.258 85.0019 188.122 85.1816L188.172 85.2145Z" fill="#FAFAFA"/>
<path d="M19.3358 120.713C19.4675 120.512 19.5992 120.312 19.7309 120.112L19.6808 120.079C19.5491 120.279 19.4174 120.479 19.29 120.701L19.3401 120.734L19.3358 120.713Z" fill="#FAFAFA"/>
<path d="M189.797 81.3492L189.68 81.4165L189.822 81.3656L189.797 81.3492Z" fill="#FAFAFA"/>
<path d="M188.123 85.1811C187.958 85.4316 187.814 85.6779 187.654 85.9492L187.704 85.9821C187.868 85.7315 188.008 85.4645 188.173 85.214L188.123 85.1811Z" fill="#FAFAFA"/>
<path d="M105.603 98.7721L105.608 98.901L105.628 98.7885L105.603 98.7721Z" fill="#FAFAFA"/>
<path d="M190.312 80.7012C190.139 80.9102 189.966 81.1192 189.793 81.3282L189.843 81.3611C189.995 81.1564 190.143 80.931 190.296 80.7262L190.337 80.7176L190.312 80.7012Z" fill="#FAFAFA"/>
<path d="M19.3058 120.675C19.1741 120.876 19.0424 121.076 18.915 121.297L18.9651 121.33C19.0968 121.13 19.2285 120.929 19.3559 120.708L19.3058 120.675Z" fill="#FAFAFA"/>
<path d="M105.998 98.169C105.867 98.3694 105.731 98.5491 105.578 98.7538L105.628 98.7867C105.76 98.5863 105.917 98.4024 106.049 98.202L105.998 98.169Z" fill="#FAFAFA"/>
<path d="M18.5501 121.935C18.6818 121.734 18.8092 121.513 18.9409 121.313L18.8908 121.28C18.7591 121.48 18.6317 121.701 18.5 121.902L18.5501 121.935Z" fill="#FAFAFA"/>
<path d="M190.275 80.7324L190.342 80.6311L190.313 80.7027L190.275 80.7324Z" fill="#FAFAFA"/>
<path d="M106.049 98.2033C106.176 97.9821 106.325 97.7566 106.452 97.5354C106.3 97.7401 106.147 97.9448 105.999 98.1703L106.049 98.2033Z" fill="#FAFAFA"/>
<path d="M18.1756 122.533C18.3073 122.333 18.4183 122.136 18.55 121.936L18.4999 121.903C18.3682 122.104 18.2572 122.3 18.1255 122.5L18.1756 122.533Z" fill="#FAFAFA"/>
<path d="M187.094 87.5376C187.225 87.3372 187.336 87.141 187.464 86.9199L187.434 86.8827C187.303 87.0831 187.192 87.2792 187.064 87.5004L187.115 87.5333L187.094 87.5376Z" fill="#FAFAFA"/>
<path d="M18.1466 122.497C18.0149 122.697 17.8832 122.897 17.7515 123.098L17.8016 123.131C17.9333 122.93 18.065 122.73 18.1967 122.529L18.1466 122.497Z" fill="#FAFAFA"/>
<path d="M186.625 88.3047C186.769 88.0585 186.93 87.7872 187.094 87.5367L187.044 87.5038C186.9 87.75 186.74 88.0213 186.596 88.2675L186.625 88.3047Z" fill="#FAFAFA"/>
<path d="M23.3948 115.326C23.5265 115.126 23.6331 114.909 23.7648 114.709L23.7147 114.676C23.583 114.876 23.4764 115.093 23.3447 115.293L23.3948 115.326Z" fill="#FAFAFA"/>
<path d="M17.7513 123.097C17.6196 123.297 17.5086 123.493 17.3812 123.715L17.427 123.727C17.5587 123.526 17.6697 123.33 17.7971 123.109L17.747 123.076L17.7513 123.097Z" fill="#FAFAFA"/>
<path d="M106.451 97.5361L106.517 97.4348L106.451 97.5361Z" fill="#FAFAFA"/>
<path d="M16.9864 124.423C17.1346 124.198 17.2827 123.972 17.4101 123.751C17.4101 123.751 17.3643 123.739 17.36 123.718C17.2119 123.944 17.0637 124.169 16.9363 124.391L16.9864 124.423Z" fill="#FAFAFA"/>
<path d="M24.1261 114.049C23.9944 114.25 23.8627 114.45 23.7353 114.671L23.7854 114.704C23.9171 114.504 24.0488 114.303 24.1762 114.082L24.1261 114.049Z" fill="#FAFAFA"/>
<path d="M186.357 89.2053L185.917 89.9025L185.938 89.8982C186.086 89.6727 186.239 89.468 186.387 89.2425L186.337 89.2096L186.357 89.2053Z" fill="#FAFAFA"/>
<path d="M190.854 79.0316L190.783 79.1111L190.904 79.0646L190.854 79.0316Z" fill="#FAFAFA"/>
<path d="M185.917 89.9022L185.792 89.928L185.933 89.8771L185.917 89.9022Z" fill="#FAFAFA"/>
<path d="M24.5177 113.427C24.386 113.628 24.2543 113.828 24.1269 114.049L24.177 114.082C24.3087 113.882 24.4361 113.661 24.5678 113.46L24.5177 113.427Z" fill="#FAFAFA"/>
<path d="M97.1751 109.823C97.3068 109.623 97.4385 109.422 97.5451 109.206L97.495 109.173C97.3633 109.373 97.2359 109.594 97.125 109.79L97.1751 109.823Z" fill="#FAFAFA"/>
<path d="M191.378 78.4252C191.205 78.6343 191.028 78.8225 190.875 79.0273L190.925 79.0602C191.078 78.8554 191.23 78.6507 191.383 78.446L191.378 78.4252Z" fill="#FAFAFA"/>
<path d="M24.8915 112.831C24.7598 113.031 24.6281 113.232 24.5214 113.449L24.5715 113.482C24.7032 113.281 24.8349 113.081 24.9416 112.864L24.8915 112.831Z" fill="#FAFAFA"/>
<path d="M191.361 78.4511L191.428 78.3498L191.378 78.4258L191.361 78.4511Z" fill="#FAFAFA"/>
<path d="M96.6766 110.554C96.8413 110.303 97.0102 110.074 97.1748 109.823L97.1247 109.79C96.9601 110.041 96.7911 110.27 96.6265 110.521L96.6766 110.554Z" fill="#FAFAFA"/>
<path d="M25.3102 112.137C25.1621 112.363 25.0389 112.605 24.8908 112.83L24.9409 112.863C25.089 112.638 25.2164 112.417 25.3646 112.191L25.3145 112.158L25.3102 112.137Z" fill="#FAFAFA"/>
<path d="M191.96 76.7455L191.886 76.8042L192.01 76.7784L191.96 76.7455Z" fill="#FAFAFA"/>
<path d="M95.0419 112.277C95.1736 112.077 95.3053 111.876 95.437 111.676L95.3869 111.643C95.2552 111.843 95.1235 112.044 94.9918 112.244L95.0419 112.277Z" fill="#FAFAFA"/>
<path d="M184.588 93.2077C184.439 93.4331 184.316 93.6751 184.168 93.9006C184.321 93.6958 184.489 93.4661 184.642 93.2613L184.592 93.2284L184.588 93.2077Z" fill="#FAFAFA"/>
<path d="M95.0131 112.24L94.6144 112.929C94.7626 112.703 94.8943 112.503 95.0424 112.277L94.9923 112.245L95.0131 112.24Z" fill="#FAFAFA"/>
<path d="M184.168 93.9012L184.048 93.9478L184.143 93.8848L184.168 93.9012Z" fill="#FAFAFA"/>
<path d="M192.356 76.145C192.224 76.3454 192.092 76.5458 191.961 76.7462L192.011 76.7791C192.142 76.5787 192.274 76.3783 192.406 76.1779L192.356 76.145Z" fill="#FAFAFA"/>
<path d="M94.5927 112.934L94.5218 113.014L94.6137 112.929L94.5927 112.934Z" fill="#FAFAFA"/>
<path d="M183.531 95.5278L183.577 95.4309L183.506 95.5112L183.531 95.5278Z" fill="#FAFAFA"/>
<path d="M93.512 114.715L93.5619 114.639L93.4614 114.682L93.512 114.715Z" fill="#FAFAFA"/>
<path d="M183.505 95.5102C183.341 95.7607 183.201 96.0278 183.036 96.2783L183.087 96.3112C183.251 96.0607 183.391 95.7937 183.555 95.5432L183.505 95.5102Z" fill="#FAFAFA"/>
<path d="M192.825 75.3774C192.66 75.6279 192.52 75.8949 192.356 76.1454L192.406 76.1783C192.571 75.9278 192.71 75.6608 192.875 75.4103L192.825 75.3774Z" fill="#FAFAFA"/>
<path d="M93.0178 115.467C93.1825 115.217 93.3263 114.97 93.491 114.72L93.4408 114.687C93.2762 114.937 93.1324 115.184 92.9677 115.434L93.0178 115.467Z" fill="#FAFAFA"/>
<path d="M110.243 93.1576L110.289 93.0608L110.218 93.141L110.243 93.1576Z" fill="#FAFAFA"/>
<path d="M182.379 98.0153C182.543 97.7648 182.683 97.4978 182.847 97.2473L182.797 97.2143C182.633 97.4648 182.493 97.7318 182.328 97.9824L182.379 98.0153Z" fill="#FAFAFA"/>
<path d="M193.438 73.8426C193.307 74.043 193.175 74.2435 193.064 74.4396L193.114 74.4725C193.246 74.2721 193.378 74.0717 193.509 73.8713L193.459 73.8383L193.438 73.8426Z" fill="#FAFAFA"/>
<path d="M28.5851 107.975C28.4534 108.175 28.3217 108.376 28.1857 108.556L28.2358 108.588C28.3675 108.388 28.4992 108.188 28.6352 108.008L28.5851 107.975Z" fill="#FAFAFA"/>
<path d="M193.464 73.86C193.617 73.6552 193.765 73.4298 193.917 73.2251C193.744 73.4341 193.592 73.6388 193.414 73.8271L193.464 73.86Z" fill="#FAFAFA"/>
<path d="M182.11 98.9163C181.962 99.1417 181.835 99.363 181.687 99.5884L181.666 99.5927C181.818 99.388 181.987 99.1582 182.14 98.9535L182.11 98.9163Z" fill="#FAFAFA"/>
<path d="M28.6348 108.008C28.7665 107.808 28.8731 107.591 29.0048 107.391L28.9547 107.358C28.8438 107.554 28.7164 107.775 28.6054 107.971L28.6555 108.004L28.6348 108.008Z" fill="#FAFAFA"/>
<path d="M181.709 99.5838L181.613 99.6474L181.688 99.5881L181.709 99.5838Z" fill="#FAFAFA"/>
<path d="M193.917 73.2241L194.033 73.1568L193.938 73.2198L193.917 73.2241Z" fill="#FAFAFA"/>
<path d="M8.15274 136.967C8.02103 137.167 7.86428 137.351 7.73258 137.552L7.78269 137.585C7.91439 137.384 8.05039 137.204 8.20285 137L8.15274 136.967Z" fill="#FAFAFA"/>
<path d="M180.63 102.013C180.794 101.763 180.934 101.496 181.098 101.245L181.048 101.212C180.884 101.463 180.74 101.709 180.579 101.98L180.63 102.013Z" fill="#FAFAFA"/>
<path d="M29.3859 106.619C29.242 106.865 29.0774 107.116 28.9335 107.362L28.9836 107.395C29.1275 107.149 29.2921 106.898 29.436 106.652L29.3859 106.619Z" fill="#FAFAFA"/>
<path d="M7.7321 137.551C7.56747 137.801 7.40285 138.052 7.23822 138.302L7.28832 138.335C7.45295 138.085 7.59683 137.839 7.76575 137.609L7.71564 137.576L7.7321 137.551Z" fill="#FAFAFA"/>
<path d="M194.547 71.5578L194.472 71.6171L194.576 71.5954L194.547 71.5578Z" fill="#FAFAFA"/>
<path d="M113.996 88.7019L114.071 88.6432L113.955 88.7105L113.996 88.7019Z" fill="#FAFAFA"/>
<path d="M180.362 102.914C180.197 103.165 180.033 103.415 179.868 103.666L179.918 103.699C180.083 103.448 180.247 103.198 180.412 102.947L180.362 102.914Z" fill="#FAFAFA"/>
<path d="M194.575 71.5946C194.707 71.3942 194.838 71.1938 194.97 70.9934L194.92 70.9604C194.788 71.1608 194.657 71.3613 194.525 71.5617L194.575 71.5946Z" fill="#FAFAFA"/>
<path d="M194.966 70.9713C195.131 70.7208 195.271 70.4538 195.435 70.2033L195.385 70.1704C195.221 70.4209 195.081 70.6879 194.916 70.9384L194.966 70.9713Z" fill="#FAFAFA"/>
<path d="M179.226 105.271C179.399 105.062 179.576 104.874 179.75 104.665L179.699 104.632C179.547 104.836 179.394 105.041 179.242 105.246L179.226 105.271Z" fill="#FAFAFA"/>
<path d="M179.244 105.246L179.152 105.331L179.227 105.271L179.244 105.246Z" fill="#FAFAFA"/>
<path d="M84.9575 126.313C85.0892 126.113 85.2459 125.929 85.3776 125.728L85.3275 125.695C85.1958 125.896 85.0391 126.08 84.9074 126.28L84.9575 126.313Z" fill="#FAFAFA"/>
<path d="M178.539 106.973L178.614 106.913L178.551 106.926L178.539 106.973Z" fill="#FAFAFA"/>
<path d="M195.653 69.2714C195.785 69.0709 195.917 68.8705 196.048 68.6701L195.998 68.6371C195.866 68.8376 195.735 69.038 195.603 69.2385L195.653 69.2714Z" fill="#FAFAFA"/>
<path d="M196.053 68.6916C196.197 68.4454 196.341 68.1992 196.468 67.978L196.427 67.9866C196.283 68.2328 196.135 68.4583 195.982 68.663L196.032 68.6959L196.053 68.6916Z" fill="#FAFAFA"/>
<path d="M84.9083 126.281C84.7809 126.502 84.6492 126.702 84.5218 126.924L84.5719 126.956C84.7036 126.756 84.831 126.535 84.9627 126.334L84.9126 126.301L84.9083 126.281Z" fill="#FAFAFA"/>
<path d="M178.553 106.924L178.486 107.025L178.54 106.97L178.553 106.924Z" fill="#FAFAFA"/>
<path d="M84.1139 127.57C84.2663 127.365 84.4188 127.16 84.5712 126.955L84.5212 126.923C84.3687 127.127 84.237 127.328 84.0845 127.532L84.1139 127.57Z" fill="#FAFAFA"/>
<path d="M177.835 108.697L177.981 108.666L177.852 108.671L177.835 108.697Z" fill="#FAFAFA"/>
<path d="M196.486 67.9527C196.486 67.9527 196.577 67.9771 196.623 67.9893C196.582 67.9979 196.515 67.99 196.469 67.9778L196.506 67.9484L196.486 67.9527Z" fill="#FAFAFA"/>
<path d="M118.134 83.6887L118.058 83.748L118.138 83.7097L118.134 83.6887Z" fill="#FAFAFA"/>
<path d="M177.851 108.672L177.831 108.786L177.835 108.697L177.851 108.672Z" fill="#FAFAFA"/>
<path d="M118.137 83.7094L118.199 83.5871L118.133 83.6884L118.137 83.7094Z" fill="#FAFAFA"/>
<path d="M2.39637 146.6C2.52807 146.4 2.65977 146.2 2.79147 145.999L2.74135 145.966C2.60965 146.167 2.47796 146.367 2.34626 146.568L2.39637 146.6Z" fill="#FAFAFA"/>
<path d="M177.269 110.353L177.315 110.256L177.219 110.319L177.269 110.353Z" fill="#FAFAFA"/>
<path d="M2.36758 146.563L1.95171 147.168L2.00181 147.201C2.13351 147.001 2.28598 146.796 2.42197 146.616L2.37187 146.583L2.36758 146.563Z" fill="#FAFAFA"/>
<path d="M177.219 110.319C177.055 110.569 176.89 110.82 176.75 111.087L176.8 111.12C176.965 110.869 177.13 110.619 177.269 110.352L177.219 110.319Z" fill="#FAFAFA"/>
<path d="M1.94716 147.147C1.81546 147.348 1.68376 147.548 1.57282 147.744L1.62293 147.777C1.75463 147.577 1.88633 147.376 1.99727 147.18L1.94716 147.147Z" fill="#FAFAFA"/>
<path d="M1.20261 148.362C1.33432 148.161 1.46601 147.961 1.602 147.781L1.55191 147.748C1.42021 147.949 1.28419 148.129 1.15249 148.329L1.20261 148.362Z" fill="#FAFAFA"/>
<path d="M81.3905 131.77C81.5222 131.57 81.6539 131.37 81.7856 131.169L81.7355 131.136C81.6038 131.337 81.4721 131.537 81.3404 131.737L81.3905 131.77Z" fill="#FAFAFA"/>
<path d="M0.786599 148.968C0.9183 148.768 1.04999 148.567 1.18599 148.388L1.13589 148.355C1.00419 148.555 0.872485 148.756 0.736489 148.935L0.786599 148.968Z" fill="#FAFAFA"/>
<path d="M80.996 132.371C81.1277 132.171 81.2594 131.97 81.3911 131.77L81.341 131.737C81.2093 131.937 81.0776 132.138 80.9459 132.338L80.996 132.371Z" fill="#FAFAFA"/>
<path d="M176.477 112.073L176.482 112.202L176.444 112.124L176.477 112.073Z" fill="#FAFAFA"/>
<path d="M0.757711 148.931L0.383353 149.527L0.433463 149.56C0.565165 149.36 0.676104 149.164 0.807805 148.963L0.757711 148.931Z" fill="#FAFAFA"/>
<path d="M80.966 132.334C80.8343 132.535 80.7026 132.735 80.5709 132.936L80.6209 132.969C80.7526 132.768 80.8844 132.568 81.0161 132.367L80.966 132.334Z" fill="#FAFAFA"/>
<path d="M0.382721 149.528C0.225966 149.712 0.0692148 149.895 -0.0875397 150.079L-0.0374323 150.112C0.119322 149.928 0.276076 149.744 0.432831 149.56L0.382721 149.528Z" fill="#FAFAFA"/>
<path d="M80.5704 132.937L80.1753 133.538L80.2255 133.571C80.3572 133.371 80.4889 133.17 80.5998 132.974L80.5497 132.941L80.5704 132.937Z" fill="#FAFAFA"/>
<path d="M-0.335881 150.758C-0.229233 150.542 -0.143344 150.329 -0.0366952 150.112L-0.0868026 150.079C-0.193451 150.296 -0.275041 150.529 -0.381689 150.746L-0.335881 150.758Z" fill="#FAFAFA"/>
<path d="M80.1759 133.537C80.0442 133.737 79.9125 133.937 79.7808 134.138L79.8309 134.171C79.9626 133.97 80.0943 133.77 80.226 133.57L80.1759 133.537Z" fill="#FAFAFA"/>
<path d="M79.4354 134.771C79.5671 134.571 79.6988 134.37 79.8305 134.17L79.7804 134.137C79.6487 134.338 79.517 134.538 79.3853 134.738L79.4354 134.771Z" fill="#FAFAFA"/>
<path d="M197.92 65.0577C197.92 65.0577 197.924 65.0787 197.887 65.1086L197.92 65.0577Z" fill="#FAFAFA"/>
<path d="M79.0399 135.374C79.1716 135.173 79.3033 134.973 79.435 134.773L79.3849 134.74C79.2532 134.94 79.1215 135.141 78.9855 135.32L79.0356 135.353L79.0399 135.374Z" fill="#FAFAFA"/>
<path d="M78.9904 135.34C78.8587 135.541 78.727 135.741 78.5953 135.942L78.6454 135.974C78.7771 135.774 78.9088 135.574 79.0405 135.373L78.9904 135.34Z" fill="#FAFAFA"/>
<path d="M174.708 116.077L174.783 116.018L174.729 116.073L174.708 116.077Z" fill="#FAFAFA"/>
<path d="M78.2499 136.577C78.3816 136.377 78.5133 136.176 78.645 135.976L78.5949 135.943C78.4632 136.143 78.3315 136.344 78.1998 136.544L78.2499 136.577Z" fill="#FAFAFA"/>
<path d="M174.73 116.071L174.638 116.156L174.709 116.075L174.73 116.071Z" fill="#FAFAFA"/>
<path d="M78.1994 136.543C78.0677 136.744 77.936 136.944 77.8043 137.145L77.8544 137.178C77.9861 136.977 78.1178 136.777 78.2495 136.576L78.1994 136.543Z" fill="#FAFAFA"/>
<path d="M77.8048 137.144C77.6731 137.344 77.5414 137.545 77.4097 137.745L77.4598 137.778C77.5915 137.578 77.7232 137.377 77.8549 137.177L77.8048 137.144Z" fill="#FAFAFA"/>
<path d="M174.004 117.802L174.125 117.755L174.042 117.773L174.004 117.802Z" fill="#FAFAFA"/>
<path d="M77.4142 137.766C77.2825 137.966 77.1508 138.167 77.0191 138.367L77.0692 138.4C77.2009 138.2 77.3326 137.999 77.4851 137.795L77.435 137.762L77.4142 137.766Z" fill="#FAFAFA"/>
<path d="M174.043 117.773L173.976 117.874L174.005 117.802L174.043 117.773Z" fill="#FAFAFA"/>
<path d="M77.0177 138.368C76.886 138.568 76.7543 138.768 76.6226 138.969L76.6727 139.002C76.8044 138.801 76.9361 138.601 77.0678 138.401L77.0177 138.368Z" fill="#FAFAFA"/>
<path d="M198.534 63.4163C198.427 63.6332 198.341 63.8458 198.23 64.0419L198.239 64.0834C198.345 63.8666 198.452 63.6497 198.559 63.4328L198.509 63.3998L198.534 63.4163Z" fill="#FAFAFA"/>
<path d="M76.6242 138.969C76.4925 139.17 76.3608 139.37 76.2291 139.57L76.2792 139.603C76.4109 139.403 76.5426 139.203 76.6743 139.002L76.6242 138.969Z" fill="#FAFAFA"/>
<path d="M173.439 119.456L173.464 119.364L173.389 119.423L173.439 119.456Z" fill="#FAFAFA"/>
<path d="M76.2287 139.57L75.8336 140.171L75.8837 140.204C76.0154 140.004 76.1471 139.803 76.2788 139.603L76.2287 139.57Z" fill="#FAFAFA"/>
<path d="M173.388 119.424C173.239 119.65 173.096 119.896 172.947 120.121L172.989 120.113C173.137 119.887 173.285 119.662 173.438 119.457L173.388 119.424Z" fill="#FAFAFA"/>
<path d="M122.335 79.2042L122.315 79.3177L122.386 79.2375L122.335 79.2042Z" fill="#FAFAFA"/>
<path d="M75.8127 140.175C75.681 140.376 75.5492 140.576 75.4175 140.776L75.4676 140.809C75.5993 140.609 75.731 140.409 75.8627 140.208L75.8127 140.175Z" fill="#FAFAFA"/>
<path d="M172.947 120.12C172.947 120.12 172.855 120.096 172.83 120.079C172.872 120.071 172.938 120.078 172.984 120.091L172.947 120.12Z" fill="#FAFAFA"/>
<path d="M75.4386 140.773C75.3026 140.953 75.1666 141.132 75.0349 141.333L75.085 141.366C75.221 141.186 75.3527 140.985 75.4887 140.806L75.4386 140.773Z" fill="#FAFAFA"/>
<path d="M75.0304 141.311C74.8987 141.511 74.7713 141.733 74.6439 141.954L74.694 141.987C74.8257 141.786 74.9531 141.565 75.0848 141.365L75.0347 141.332L75.0304 141.311Z" fill="#FAFAFA"/>
<path d="M172.293 121.88L172.288 121.751L172.306 121.834L172.293 121.88Z" fill="#FAFAFA"/>
<path d="M198.583 63.4483C198.735 63.2436 198.892 63.0597 199.044 62.8549C198.863 63.0224 198.689 63.2314 198.533 63.4154L198.583 63.4483Z" fill="#FAFAFA"/>
<path d="M74.2782 142.594C74.4099 142.393 74.5416 142.193 74.6733 141.992L74.6232 141.959C74.4915 142.16 74.3598 142.36 74.2281 142.561L74.2782 142.594Z" fill="#FAFAFA"/>
<path d="M122.772 78.5944C122.62 78.7991 122.488 78.9996 122.336 79.2043L122.386 79.2372C122.517 79.0368 122.665 78.8113 122.797 78.6109L122.776 78.6152L122.772 78.5944Z" fill="#FAFAFA"/>
<path d="M73.8827 143.194C74.0144 142.994 74.1461 142.793 74.2778 142.593L74.2277 142.56C74.096 142.76 73.9643 142.961 73.8326 143.161L73.8827 143.194Z" fill="#FAFAFA"/>
<path d="M199.045 62.8564L199.09 62.7594L199.061 62.831L199.045 62.8564Z" fill="#FAFAFA"/>
<path d="M73.8539 143.156C73.7222 143.357 73.5905 143.557 73.4381 143.762L73.4882 143.795C73.6199 143.594 73.7516 143.394 73.904 143.189L73.8539 143.156Z" fill="#FAFAFA"/>
<path d="M172.043 122.861C171.886 123.045 171.734 123.249 171.577 123.433C171.759 123.266 171.936 123.078 172.114 122.889L172.064 122.856L172.043 122.861Z" fill="#FAFAFA"/>
<path d="M73.4337 143.742C73.302 143.942 73.1703 144.142 73.0429 144.364L73.093 144.397C73.2247 144.196 73.3564 143.996 73.4881 143.795L73.438 143.762L73.4337 143.742Z" fill="#FAFAFA"/>
<path d="M171.577 123.433L171.511 123.534L171.56 123.458L171.577 123.433Z" fill="#FAFAFA"/>
<path d="M73.0424 144.364C72.9064 144.544 72.7704 144.724 72.6179 144.928L72.668 144.961C72.804 144.782 72.9357 144.581 73.0717 144.401L73.0216 144.369L73.0424 144.364Z" fill="#FAFAFA"/>
<path d="M72.3239 145.595C72.4513 145.374 72.5622 145.178 72.6896 144.957L72.6395 144.924C72.5121 145.145 72.4055 145.362 72.2781 145.583L72.3282 145.616L72.3239 145.595Z" fill="#FAFAFA"/>
<path d="M72.2736 145.562C72.1168 145.746 71.935 145.914 71.7783 146.098L71.7912 146.16C71.9687 145.972 72.1462 145.784 72.3237 145.595L72.2736 145.562Z" fill="#FAFAFA"/>
<path d="M170.931 125.126C170.766 125.377 170.602 125.627 170.462 125.894L170.512 125.927C170.677 125.677 170.842 125.426 170.981 125.159L170.931 125.126Z" fill="#FAFAFA"/>
<path d="M124.093 77.3466C124.216 77.1047 124.344 76.8835 124.467 76.6415L124.421 76.6293C124.294 76.8505 124.171 77.0925 124.043 77.3136L124.093 77.3466Z" fill="#FAFAFA"/>
<path d="M200.04 60.5502L199.966 60.6089L200.086 60.5623L200.04 60.5502Z" fill="#FAFAFA"/>
<path d="M200.43 59.9272C200.298 60.1276 200.166 60.328 200.035 60.5284L200.085 60.5613C200.217 60.3609 200.348 60.1605 200.48 59.9601L200.43 59.9272Z" fill="#FAFAFA"/>
<path d="M169.796 127.591C169.961 127.34 170.13 127.11 170.294 126.86L170.244 126.827C170.079 127.077 169.911 127.307 169.725 127.562L169.775 127.595L169.796 127.591Z" fill="#FAFAFA"/>
<path d="M200.883 59.2925C200.731 59.4972 200.582 59.7227 200.434 59.9481L200.484 59.9811C200.628 59.7349 200.776 59.5094 200.92 59.2631L200.879 59.2717L200.883 59.2925Z" fill="#FAFAFA"/>
<path d="M200.916 59.2424C200.916 59.2424 201.007 59.2667 201.032 59.2832C200.991 59.2918 200.924 59.2839 200.878 59.2718L200.916 59.2424Z" fill="#FAFAFA"/>
<path d="M169.583 128.544C169.43 128.749 169.278 128.954 169.126 129.158C169.303 128.97 169.481 128.782 169.654 128.573L169.604 128.54L169.583 128.544Z" fill="#FAFAFA"/>
<path d="M169.126 129.157L169.055 129.238L169.109 129.183L169.126 129.157Z" fill="#FAFAFA"/>
<path d="M201.463 57.5932L201.397 57.6935L201.509 57.6054L201.463 57.5932Z" fill="#FAFAFA"/>
<path d="M168.43 130.818L168.409 130.932L168.438 130.86L168.43 130.818Z" fill="#FAFAFA"/>
<path d="M167.837 132.564L167.907 132.485L167.787 132.531L167.837 132.564Z" fill="#FAFAFA"/>
<path d="M167.344 133.317C167.508 133.066 167.677 132.836 167.842 132.586L167.792 132.553C167.627 132.803 167.458 133.033 167.294 133.284L167.344 133.317Z" fill="#FAFAFA"/>
<path d="M201.509 57.605C201.695 57.4582 201.877 57.2907 202.063 57.144L202.05 57.0817C201.868 57.2492 201.665 57.421 201.479 57.5677L201.525 57.5799L201.509 57.605Z" fill="#FAFAFA"/>
<path d="M166.755 134.865C166.886 134.665 167.018 134.464 167.171 134.26L167.121 134.227C166.989 134.427 166.857 134.627 166.705 134.832L166.755 134.865Z" fill="#FAFAFA"/>
<path d="M166.257 135.597C166.421 135.346 166.59 135.116 166.755 134.866L166.705 134.833C166.54 135.084 166.371 135.313 166.207 135.564L166.257 135.597Z" fill="#FAFAFA"/>
<path d="M202.169 56.2992C202.116 56.5698 202.081 56.8153 202.028 57.0859L202.041 57.1482C202.093 56.8776 202.146 56.607 202.219 56.3321L202.169 56.2992Z" fill="#FAFAFA"/>
<path d="M166.069 136.567C165.912 136.751 165.755 136.935 165.577 137.123L165.586 137.165C165.764 136.977 165.941 136.788 166.119 136.6L166.069 136.567Z" fill="#FAFAFA"/>
<path d="M202.235 56.3073C202.434 56.1147 202.632 55.9221 202.809 55.7338L202.768 55.7424C202.806 55.9293 202.849 56.1368 202.888 56.3237L202.942 56.2693C202.684 56.2793 202.451 56.3058 202.194 56.3158L202.24 56.328L202.235 56.3073Z" fill="#FAFAFA"/>
<path d="M64.5653 158.631L64.6658 158.588L64.5776 158.585L64.5653 158.631Z" fill="#FAFAFA"/>
<path d="M165.578 137.123L165.536 137.241L165.586 137.165L165.578 137.123Z" fill="#FAFAFA"/>
<path d="M64.5777 158.584L64.5619 158.717L64.5655 158.63L64.5777 158.584Z" fill="#FAFAFA"/>
<path d="M164.936 138.836C164.772 139.087 164.603 139.316 164.438 139.567L164.488 139.6C164.653 139.349 164.822 139.119 164.986 138.869L164.936 138.836Z" fill="#FAFAFA"/>
<path d="M130.948 70.1923L131.015 70.091L130.944 70.1713L130.948 70.1923Z" fill="#FAFAFA"/>
<path d="M163.905 141.171C164.036 140.97 164.189 140.765 164.325 140.586L164.275 140.553C164.143 140.753 163.991 140.958 163.855 141.138L163.905 141.171Z" fill="#FAFAFA"/>
<path d="M163.857 141.158C163.688 141.388 163.524 141.639 163.355 141.868L163.405 141.901C163.574 141.671 163.738 141.421 163.907 141.191L163.857 141.158Z" fill="#FAFAFA"/>
<path d="M163.133 142.887C162.985 143.113 162.854 143.313 162.705 143.539L162.751 143.551C162.883 143.351 163.015 143.15 163.167 142.945L163.154 142.883L163.133 142.887Z" fill="#FAFAFA"/>
<path d="M59.9106 166.259L59.865 166.356L59.9193 166.301L59.9106 166.259Z" fill="#FAFAFA"/>
<path d="M162.052 145.191C161.925 145.412 161.793 145.612 161.665 145.834L161.67 145.854C161.801 145.654 161.933 145.454 162.081 145.228L162.052 145.191Z" fill="#FAFAFA"/>
<path d="M161.664 145.833C161.498 145.867 161.312 145.906 161.146 145.94L161.15 145.961C161.337 145.923 161.503 145.888 161.69 145.85L161.664 145.833Z" fill="#FAFAFA"/>
<path d="M161.169 147.625L161.214 147.528L161.118 147.592L161.169 147.625Z" fill="#FAFAFA"/>
<path d="M58.4491 169.247L58.554 169.225L58.4614 169.201L58.4491 169.247Z" fill="#FAFAFA"/>
<path d="M161.119 147.591C160.937 147.758 160.755 147.926 160.578 148.114L160.586 148.155C160.568 147.964 160.509 147.782 160.47 147.595L160.437 147.645C160.674 147.639 160.911 147.634 161.148 147.628L161.098 147.595L161.119 147.591Z" fill="#FAFAFA"/>
<path d="M58.4615 169.201L58.45 169.355L58.4493 169.247L58.4615 169.201Z" fill="#FAFAFA"/>
<path d="M160.579 148.115C160.431 148.341 160.299 148.541 160.151 148.767L160.197 148.779C160.158 148.592 160.12 148.405 160.077 148.197L160.044 148.248C160.231 148.209 160.417 148.17 160.604 148.132L160.596 148.09L160.579 148.115Z" fill="#FAFAFA"/>
<path d="M140.047 73.8936C139.989 74.4469 139.909 75.0045 139.855 75.5786C139.913 75.0253 139.993 74.4677 140.047 73.8936Z" fill="#FAFAFA"/>
</svg>
