<svg width="156" height="145" viewBox="0 0 156 145" fill="none" xmlns="http://www.w3.org/2000/svg">
<path d="M8.72638 63.6727L30.3856 70.2196C31.1246 70.4429 32.0914 70.6291 32.8786 70.3567L43.785 66.3351C45.9601 65.5332 46.0363 60.6605 41.1799 59.2007L38.7431 58.4693C38.3697 58.3569 38.0046 58.2098 37.6802 57.9938C35.4422 56.5066 37.3768 54.5345 39.278 53.9945L125.918 29.3885C127.399 28.9677 128.218 27.3593 127.688 25.9217L124.893 18.3427C124.441 17.1153 123.143 16.4167 121.862 16.7151L4.00713 42.113C1.79399 42.6281 0.405543 44.6514 1.05932 46.4248L6.77716 61.9343C7.08103 62.7586 7.78861 63.3894 8.72638 63.6727Z" fill="#E42721"/>
<path d="M8.72638 63.6727L30.3856 70.2196C31.1246 70.4429 32.0914 70.6291 32.8786 70.3567L43.785 66.3351C45.9601 65.5332 46.0363 60.6605 41.1799 59.2007L38.7431 58.4693C38.3697 58.3569 38.0046 58.2098 37.6802 57.9938C35.4422 56.5066 37.3768 54.5345 39.278 53.9945L125.918 29.3885C127.399 28.9677 128.218 27.3593 127.688 25.9217L124.893 18.3427C124.441 17.1153 123.143 16.4167 121.862 16.7151L4.00713 42.113C1.79399 42.6281 0.405543 44.6514 1.05932 46.4248L6.77716 61.9343C7.08103 62.7586 7.78861 63.3894 8.72638 63.6727Z"/>
<path d="M30.4335 126.007L36.2287 141.726C36.8942 143.531 39.0102 144.321 40.6954 143.393L146.63 85.03C147.992 84.2797 148.601 82.647 148.063 81.1888L145.182 73.3753C144.944 72.7273 144.498 72.1762 143.915 71.8068L136.077 66.9984C135.277 66.4917 134.231 66.0904 133.334 66.3912L124.534 69.637C121.794 70.555 121.64 74.3713 124.296 75.5082C126.821 76.5894 126.843 80.1625 124.33 81.2738L32.1121 122.044C30.5944 122.715 29.8596 124.45 30.4335 126.007Z" fill="#E42721"/>
<path d="M30.4335 126.007L36.2287 141.726C36.8942 143.531 39.0102 144.321 40.6954 143.393L146.63 85.03C147.992 84.2797 148.601 82.647 148.063 81.1888L145.182 73.3753C144.944 72.7273 144.498 72.1762 143.915 71.8068L136.077 66.9984C135.277 66.4917 134.231 66.0904 133.334 66.3912L124.534 69.637C121.794 70.555 121.64 74.3713 124.296 75.5082C126.821 76.5894 126.843 80.1625 124.33 81.2738L32.1121 122.044C30.5944 122.715 29.8596 124.45 30.4335 126.007Z"/>
<path d="M65.832 80.8615C66.9863 81.2077 68.2218 81.1697 69.3525 80.7528L120.656 61.8388C122.39 61.1998 122.624 58.8441 121.051 57.8759L109.877 51.088C108.816 50.4348 107.513 50.3054 106.344 50.7364L47.7964 72.3209C46.2939 72.8749 46.3603 75.022 47.8942 75.4819L65.832 80.8615Z" fill="#E42721"/>
<path d="M65.832 80.8615C66.9863 81.2077 68.2218 81.1697 69.3525 80.7528L120.656 61.8388C122.39 61.1998 122.624 58.8441 121.051 57.8759L109.877 51.088C108.816 50.4348 107.513 50.3054 106.344 50.7364L47.7964 72.3209C46.2939 72.8749 46.3603 75.022 47.8942 75.4819L65.832 80.8615Z"/>
</svg>
