<svg width="32" height="32" viewBox="0 0 32 32" fill="none" xmlns="http://www.w3.org/2000/svg">
<path d="M29.948 8.0026C28.9214 8.46927 27.8147 8.77594 26.668 8.9226C27.8414 8.21594 28.748 7.09594 29.1747 5.74927C28.068 6.41594 26.8414 6.8826 25.548 7.14927C24.4947 6.0026 23.0147 5.33594 21.3347 5.33594C18.2014 5.33594 15.6414 7.89594 15.6414 11.0559C15.6414 11.5093 15.6947 11.9493 15.788 12.3626C11.0414 12.1226 6.81469 9.8426 4.00135 6.38927C3.50802 7.22927 3.22802 8.21594 3.22802 9.25594C3.22802 11.2426 4.22802 13.0026 5.77469 14.0026C4.82802 14.0026 3.94802 13.7359 3.17469 13.3359V13.3759C3.17469 16.1493 5.14802 18.4693 7.76135 18.9893C6.92232 19.2189 6.04148 19.2508 5.18802 19.0826C5.55016 20.2192 6.2594 21.2138 7.21604 21.9265C8.17268 22.6392 9.32862 23.0342 10.5214 23.0559C8.49953 24.6565 5.99335 25.5217 3.41469 25.5093C2.96135 25.5093 2.50802 25.4826 2.05469 25.4293C4.58802 27.0559 7.60135 28.0026 10.828 28.0026C21.3347 28.0026 27.108 19.2826 27.108 11.7226C27.108 11.4693 27.108 11.2293 27.0947 10.9759C28.2147 10.1759 29.1747 9.1626 29.948 8.0026V8.0026Z" fill="#161618"/>
</svg>
