<svg width="80" height="81" viewBox="0 0 80 81" fill="none" xmlns="http://www.w3.org/2000/svg">
<g filter="url(#filter0_b_148_3796)">
<path d="M55.5556 40.0732L32.2222 55.6288V24.5177L55.5556 40.0732ZM40 5.07324C33.0777 5.07324 26.3108 7.12596 20.5551 10.9718C14.7993 14.8177 10.3133 20.2839 7.66423 26.6793C5.01516 33.0747 4.32205 40.1121 5.67253 46.9014C7.02301 53.6907 10.3564 59.9271 15.2513 64.822C20.1461 69.7168 26.3825 73.0502 33.1718 74.4007C39.9612 75.7512 46.9985 75.0581 53.3939 72.409C59.7893 69.7599 65.2556 65.2739 69.1014 59.5182C72.9473 53.7625 75 46.9956 75 40.0732C75 30.7907 71.3125 21.8883 64.7487 15.3245C58.185 8.76073 49.2826 5.07324 40 5.07324Z" fill="black" fill-opacity="0.7"/>
<path d="M55.5556 40.0732L32.2222 55.6288V24.5177L55.5556 40.0732ZM40 5.07324C33.0777 5.07324 26.3108 7.12596 20.5551 10.9718C14.7993 14.8177 10.3133 20.2839 7.66423 26.6793C5.01516 33.0747 4.32205 40.1121 5.67253 46.9014C7.02301 53.6907 10.3564 59.9271 15.2513 64.822C20.1461 69.7168 26.3825 73.0502 33.1718 74.4007C39.9612 75.7512 46.9985 75.0581 53.3939 72.409C59.7893 69.7599 65.2556 65.2739 69.1014 59.5182C72.9473 53.7625 75 46.9956 75 40.0732C75 30.7907 71.3125 21.8883 64.7487 15.3245C58.185 8.76073 49.2826 5.07324 40 5.07324Z" stroke="url(#paint0_linear_148_3796)" stroke-width="0.5" stroke-linecap="round" stroke-linejoin="round"/>
</g>
<path d="M32 54.1722V24.9743C32 24.1691 32.903 23.6941 33.5665 24.1502L54.8014 38.7492C55.3794 39.1465 55.3794 39.9999 54.8014 40.3973L33.5665 54.9963C32.903 55.4524 32 54.9774 32 54.1722Z" fill="#FAFAFA" stroke="#FAFAFA"/>
<defs>
<filter id="filter0_b_148_3796" x="0.75" y="0.823242" width="78.5" height="78.5" filterUnits="userSpaceOnUse" color-interpolation-filters="sRGB">
<feFlood flood-opacity="0" result="BackgroundImageFix"/>
<feGaussianBlur in="BackgroundImageFix" stdDeviation="2"/>
<feComposite in2="SourceAlpha" operator="in" result="effect1_backgroundBlur_148_3796"/>
<feBlend mode="normal" in="SourceGraphic" in2="effect1_backgroundBlur_148_3796" result="shape"/>
</filter>
<linearGradient id="paint0_linear_148_3796" x1="27.5" y1="2.57324" x2="53.75" y2="70.0732" gradientUnits="userSpaceOnUse">
<stop stop-color="white"/>
<stop offset="0.746732" stop-color="white" stop-opacity="0"/>
</linearGradient>
</defs>
</svg>
